/* XPM */
static char *c06f97a915af4b2791eb91ecdafb4d81dr5t2Mj2e0xlVQvo[] = {
/* columns rows colors chars-per-pixel */
"64 64 178 2 ",
"   c #000005",
".  c #00000C",
"X  c #000014",
"o  c #00011B",
"O  c #030D1E",
"+  c #05121F",
"@  c #0E171D",
"#  c #18231F",
"$  c #000023",
"%  c #000E24",
"&  c #00032B",
"*  c #051521",
"=  c #061921",
"-  c #0A1D23",
";  c #00142B",
":  c #001C2A",
">  c #001732",
",  c #072227",
"<  c #0C2325",
"1  c #01232D",
"2  c #0D2728",
"3  c #032B2E",
"4  c #0E2A29",
"5  c #152523",
"6  c #1D2A21",
"7  c #112D2A",
"8  c #0E302E",
"9  c #14322E",
"0  c #1B362D",
"q  c #002533",
"w  c #012C34",
"e  c #002A38",
"r  c #023435",
"t  c #0D3B37",
"y  c #00343B",
"u  c #033D3C",
"i  c #0B3D3A",
"p  c #163730",
"a  c #163A33",
"s  c #193C34",
"d  c #123F39",
"f  c #223325",
"g  c #213629",
"h  c #243B2B",
"j  c #213F31",
"k  c #07443F",
"l  c #0D433D",
"z  c #1C4136",
"x  c #14423B",
"c  c #1D4539",
"v  c #17483F",
"b  c #1D4A3D",
"n  c #2B422C",
"m  c #344B2D",
"M  c #244434",
"N  c #294531",
"B  c #214C3D",
"V  c #2A4E3B",
"C  c #23503F",
"Z  c #29523F",
"A  c #365235",
"S  c #34573B",
"D  c #3A5938",
"F  c #44643B",
"G  c #47683E",
"H  c #014442",
"J  c #0A4741",
"K  c #0D4C44",
"L  c #004C4A",
"P  c #154D44",
"I  c #1C4E41",
"U  c #02524B",
"Y  c #0C554C",
"T  c #0F584E",
"R  c #155146",
"E  c #1C5245",
"W  c #13564B",
"Q  c #1B5649",
"!  c #16594D",
"~  c #1D5C4D",
"^  c #1D5F50",
"/  c #214F40",
"(  c #255442",
")  c #2A5642",
"_  c #265846",
"`  c #295A46",
"'  c #225D4C",
"]  c #2A5E49",
"[  c #335B41",
"{  c #25614E",
"}  c #2D644D",
"|  c #3B6545",
" . c #31664E",
".. c #3B6748",
"X. c #35694D",
"o. c #3C6B4B",
"O. c #256350",
"+. c #2C6650",
"@. c #2E6951",
"#. c #306750",
"$. c #326B52",
"%. c #396F52",
"&. c #347056",
"*. c #3C7353",
"=. c #426742",
"-. c #456B43",
";. c #4A6D41",
":. c #4D7344",
">. c #47744C",
",. c #4B764B",
"<. c #4D794D",
"1. c #517644",
"2. c #567D47",
"3. c #587F48",
"4. c #417653",
"5. c #447A55",
"6. c #4A7E55",
"7. c #467E58",
"8. c #507F51",
"9. c #5A834B",
"0. c #5E884D",
"q. c #4D8257",
"w. c #4E8459",
"e. c #538555",
"r. c #588651",
"t. c #578957",
"y. c #5C8B53",
"u. c #518659",
"i. c #558A5A",
"p. c #598E5B",
"a. c #5D935C",
"s. c #628D4F",
"d. c #618D51",
"f. c #659355",
"g. c #699755",
"h. c #6A9957",
"j. c #61965D",
"k. c #659A5E",
"l. c #6A9D5C",
"z. c #6EA15D",
"x. c #73A65D",
"c. c #76A85D",
"v. c #669C60",
"b. c #689E60",
"n. c #6CA362",
"m. c #70A763",
"M. c #72A964",
"N. c #74AB64",
"B. c #75AC64",
"V. c #75AC65",
"C. c #79AF64",
"Z. c #78AF66",
"A. c #77B067",
"S. c #79B066",
"D. c #7AB266",
"F. c #7BB367",
"G. c #7CB568",
"H. c #7DB668",
"J. c #7FB869",
"K. c #80B767",
"L. c #80B969",
"P. c #80B96A",
"I. c #83BC6B",
"U. c #85BF6B",
"Y. c #84BE6C",
"T. c #86BF6C",
"R. c #86C06C",
"E. c #87C16C",
"W. c #88C26D",
"Q. c #88C36E",
"!. c #89C46D",
"~. c #8AC46E",
"^. c #8BC66E",
"/. c #8CC76F",
"(. c #8DC86F",
"). c #8BC770",
"_. c #8ECA71",
"`. c #91CD72",
/* pixels */
"R.R.R.R.R.R.R.R.R.R.R.R.R.W.!.!.!.(.!.!.!.).).!.!./.!.W.R.R.R.R.R.R.R.R.R.R.R.R.R.R.R.R.R.R.R.R.R.R.R.R.R.R.R.R.R.R.R.R.R.R.R.R.",
"R.R.R.R.R.R.R.R.R.R.R.R.R.W.!.!.!.W.!.)./.!.!.!.).!.W.W.R.R.R.R.R.R.R.R.R.R.R.R.R.R.R.R.R.R.R.R.R.R.R.R.R.R.R.R.R.R.R.R.R.R.R.R.",
"R.R.R.R.R.R.R.R.R.R.R.R.T.T.R.U.U.U.U.U.U.U.U.T.T.R.U.T.U.T.R.W.R.R.R.R.R.R.R.R.R.R.R.R.R.R.R.R.R.R.R.R.R.R.R.R.R.R.R.R.R.R.R.R.",
"R.R.R.R.R.R.R.R.R.R.W.R.U.L.G.S.V.S.V.S.S.S.Z.V.V.S.G.L.U.W.W.W.W.R.R.R.R.R.W.R.R.W.W.W.W.R.R.R.R.R.R.R.R.R.R.R.R.R.R.R.R.R.R.R.",
"R.R.R.R.R.R.R.R.W.!.W.R.L.Z.n.k.j.j.k.k.v.l.k.k.v.n.M.S.T.W./.!.W.R.R.R.E.!.W.!.!.!.!.!.!.R.R.R.R.R.R.R.R.R.R.R.R.R.R.R.R.R.R.R.",
"R.R.R.R.R.R.R.R.W.!.!.T.G.m.j.u.5.6.6.w.u.u.u.w.w.i.k.B.L.!.(./.!.R.R.R.W.!.!./.(.!.).!.!.!.R.R.R.T.R.R.R.R.R.R.R.R.R.R.R.R.R.R.",
"R.R.R.R.R.R.R.R.W.!.!.T.S.n.i.*.O.{ @.$.%.%.$.} } 4.i.n.G.W./.!.!.R.R.R.W.W.W.!.!.W.!.!.!.R.R.R.R.T.R.R.R.R.R.R.R.R.R.R.R.R.R.R.",
"R.R.R.R.R.R.R.R.W.!./.U.G.n.p.5.O.' ' ' ' ~ Y U Y @.6.j.M.G.U.W.W.R.R.U.U.L.L.L.J.J.J.L.L.Y.I.T.R.W.R.R.R.R.R.R.R.R.R.R.R.R.R.R.",
"R.R.R.R.R.R.R.R.W.!.!.W.L.V.b.p.6.*.+.' W U L L U +.4.i.k.m.S.G.T.R.).T.J.S.V.n.m.n.n.m.V.S.J.U.W.!.!.W.W.W.R.W.R.R.R.R.R.R.R.R.",
"R.R.R.R.R.R.R.R.!.!.).!.R.J.S.n.k.i.5.@.W L L U ~ } %.5.u.a.b.B.L.!.).T.G.n.k.p.i.i.u.a.k.n.S.T.!.!.!.).!.!.W.W.R.R.R.R.R.R.R.R.",
"R.R.R.R.R.R.R.R.W.!.).!.W.W.R.L.B.b.i.*.~ U U ~ { $.%.$.%.4.t.n.G.R.).Y.V.k.q.4.%.@.*.*.u.k.V.L.W.).!.!.!._.W.W.R.R.R.R.R.R.R.R.",
"R.R.R.R.R.R.R.R.W.T.T.T.W.W.!.!.U.V.k.q.$.' ' O.@.#.{ ' ~ { 5.j.V.I.I.G.n.u.%.~ Y Y ~ } q.k.V.I.!.!.R.T.T.T.T.T.R.R.R.R.R.R.R.R.",
"R.R.R.R.W.R.R.U.U.G.G.S.G.R.!./.W.K.m.a.6.4.%.%.$.} { W U ! %.u.k.V.B.x.a.5.{ Y Y ~ $.4.i.n.S.T.W.R.L.G.G.G.G.U.R.W.W.W.R.R.R.R.",
"R.R.R.R.W.W.W.I.S.m.n.k.n.S.R.!./.R.G.n.j.i.w.4.%.} ' ! W ~ } 5.r.f.g.y.q.o.{ { $.4.w.a.n.V.L.!.!.R.S.m.n.n.V.L.T.!./.W.R.R.R.R.",
"R.R.R.R.!.!.!.L.V.k.u.w.p.n.G.!.(.!.T.K.V.n.a.u.*.O.^ O.' +. .o.-.:.:.;.| ] } $.q.p.v.M.S.U.!.!.W.G.m.a.i.p.n.S.R.!.(.!.W.R.R.R.",
"R.R.R.R.!.!.W.L.m.p.4.%.5.j.V.W./.).!.W.L.Z.b.i.4.{ ~ O.@.#. .` Z n h M b E ] *.i.n.V.I.!.!.(.!.R.V.v.6.*.6.j.B.R./.).!.W.R.R.R.",
"R.R.R.R.!.!.W.L.m.p.5.$.5.p.n.G.R.).).).).G.m.p.5.{ ~ O.$.$.] I w o X $ q H ' 5.a.m.L./.).).).T.G.n.i.*.' %.u.b.S.T.R.R.R.T.R.R.",
"R.R.R.W.!.!.!.L.V.v.i.q.u.p.v.n.S.L.)._.).T.V.a.5.O.~ O.$.$.] b 1 o . $ > H ' 5.v.B.U./.(.W.J.Z.n.j.6.$.~ } 5.a.n.V.G.L.U.T.R.R.",
"R.R.R.R.W.!.W.U.G.B.n.l.j.j.a.v.v.V.L.).).T.A.j.5.O.^ O.@.$.] b 3 o X $ w H ' 7.j.B.R._.!.T.V.n.p.u.4.#.{ @.%.6.u.j.n.V.G.U.!.!.",
"R.R.R.R.R.R.R.U.T.L.H.F.m.k.i.q.u.v.S.W.).W.A.j.7.O.^ O.@.$.{ ( a = O : r H ' 5.j.B.R.!.R.S.b.i.5.%.$.#.} { @. .%.6.p.n.S.T.!.!.",
"R.R.R.R.R.R.R.R.!./.!.U.Z.k.w.%.%.u.n.L.R.Y.n.a.4.O.~ O.$. .} C s 2 = , y K ] 5.a.M.J.W.L.m.p.*.{ ' { @.$.} { ~ ' %.u.b.S.U.!.!.",
"R.R.R.R.R.R.R.W.(.(.(./.S.l.6._ R >.a.m.S.A.l.e.o.' Q { @. .} ( s 2 = 3 i P O.4.p.n.A.G.V.v.w.#.W U ~ O. .$.#.} %.6.p.n.G.R.!.!.",
"R.R.R.R.W.!.!.!.(.(.`.!.K.l.6.( u ) ,.d.h.f.9.>.S I R ' @.$.} _ s 2 = 4 d E @.&.w.j.n.n.v.p.5.@.! T ~ { @.%.5.w.i.j.n.S.L.W./.!.",
"R.R.R.R.W.!.!.!.(.`.`./.H.l.<.V q p D G 1.G F A M a b _ } $. .` c 2 = 9 x ' @.&.w.w.i.p.i.6.*.$.O.O.~ ~ @.4.u.j.n.V.G.I.W.W._._.",
"R.R.R.W.T.W.W.!.)._._.!.S.h.1.N $ o < h n n f 6 - 2 s ( }  . .` c 2 = 7 B _ @.&.%.*.4.4.*.*.%.$.@.+.' ~ @.5.a.n.G.R.!.!.W.W.!.!.",
"R.R.R.U.U.R.T.I.R.R.R.Y.V.d.;.h .   X o $ o o o o 2 s ( } } } ( s < = 7 c ) }  .@.+.+.O.] +.} } +.{ ' ~ @.5.v.m.L.W.W.R.R.U.L.U.",
"R.R.T.I.L.G.V.V.A.S.G.V.l.0.F f .   X $ & : : 1 4 0 c B ) _ ( B 0 < = 4 s B ) ] ' ' ' ~ ~ ' _ _ ` ` ' Q @.5.p.n.V.H.H.G.S.V.V.Z.",
"!.R.T.J.V.m.b.k.v.v.n.k.t.:.A # . X ; r l x v b b B B B B B z 9 7 - = < 7 s c b / ' ' ' ' E I b B / / ' @.4.u.a.v.n.n.n.l.v.k.v.",
"!.!.U.G.n.j.i.6.7.w.u.q.5.| N @ X : d ( _ { } } ] ` C B s 9 2 < - = = - - < 4 s b _ { +.] ( c 7 7 s / ' @.%.5.7.q.u.u.u.u.u.u.8.",
"!.!.U.S.n.i.*.{ O.@.%.$.] V p = = 9 b ]  .$.$.$.$.} ` B 9 - o o O @ = + o o O 4 c _  .#.#./ a - - p / ] #.$.$.$.$.%.$.%.$.$.%.$.",
"!.!.R.S.k.q.@.U U T ^ ' Q I a 7 9 z / ] } $.$.$.$.$.} C z 2 + O + + + + O O - 9 M _ } #.] ( s 4 4 s / ] $.@.@.O.' ' ' ~ ~ ~ ' ~ ",
").!.T.V.k.q.@.U U Y ! ^ ' I v c c M V ( ` ] } $.$.$.} ` B c 9 4 , + O * < 7 s M ( ` #.#. .] / c j B `  .$.@.@.O.O.' ! ! W Y Y Y ",
"!.W.T.S.b.u.$.! T ~ { { { ] ] _ ( B B c M B ) } #.$.$.{ ` ( B s 2 O o = 9 c B ` ] } @.#. .} ` ) _ ] } #.$.$.$.@.@.O.O.~ ~ Y Y Y ",
"!.W.T.S.b.i.*.' ^ { @.} }  .} } ] ( c p 9 p b ` } $.$.$.#.} ) b 9 + X < s ( ] } @.$.#.#.$.} } } } #. .$.$.$.$.$.$.$.O.+.' ~ ~ ~ ",
").!.T.V.v.u.%.' ~ { $.$.$.$.$.$. .) c 2 * < s ( } $.&.&.$.$.} ) c 2 < 9 b `  .$.$.$.@.$.#.$.$.$.@. .} $.}  .}  .@.$.#.X.$.%.$.%.",
").!.T.Z.l.6. .P K ' { $.$.$.&.&.@.` c - X * s ( } $.&.&.&.$.#.` B s p c C } $.&.$.$.$.$.} } } ] ] ] ] ] ] ] _ _ _ ] X.4.6.w.u.u.",
").!.T.B.d.>.B e u P +.#.&.&.&.$.@.) s - X + s ( } $.&.&.&.$.$.} _ B B C ` }  .%.$.&.$.$.@.] _ ( B B b B B c x t x Z | w.a.l.n.n.",
"!._.I.B.y.F 1 $ > J { $.&.&.&.$.} ( s - X @ s (  .$.&.&.$.$.$.$.} ] ` } } }  .@.$.$.&.$.} ) B s 7 7 7 9 p 4 : $ * M -.y.z.S.G.T.",
"/.!.T.c.d.F 5 o & J ] $.$.&.$.%.} _ c < O < c ( } $.$.$.$.$.#.@.}  .}  .}  .$.@.#.$.%.$.] ( z 4 O o O = = * o X X g F f.B.Y.).!.",
"/./.U.V.f.1.A g p B ` +.@.@.$.$.} ` B p 7 7 c ( ] } $. .} } } @. .$.$.$.$.$.@. .@.@.@.} ` B s 4 = + @ - < = o X o h -.d.x.Y.R.!.",
"!./.U.K.x.s.2.G D [ ) ) _ { {  . .] _ B c c M / ( ( ) ( ( ( ) ] } $.&.&.$.&.$.$.} } ` ( / b c s s 9 s a s a w 1 3 M -.e.l.M.S.S.",
"!.(.W.U.S.c.h.s.2.-.S b x E } @.#.#.} ] _ / / b c s s s s s B ( }  .$.&.&.&.$.@.] ( B s z M M / V ( B B B / B b I ` ..5.e.a.a.j.",
"_.!.W.W.T.U.K.c.f.1.A 7 1 i ( } $.$.$.$.@.` / M 9 < * * + < p B ` @.$.&.&.&.%.} ` B 9 4 7 s ( ] { } } ] ] } } ] } } X.o.*.*.4.4.",
"T.T.R.W.!./.W.K.z.9.A O $ r E } $.$.$.$.#.] ( z 7 O X X X + 7 c ( } @.$.$.$.@.} ( s 2 = 7 c _ } $.$.$.$. . .} $.$. .$.@. .@.$.$.",
"S.S.S.J.W.).).R.c.s.m X o q I } @.%.$.} } ` ( c p 4 < - - 2 9 c C ` } } ] } } ` / c 7 7 s / ` @.%.&.$.&.$.$.@.} ] } X.%.4.5.5.5.",
"b.v.n.V.T.)._.W.c.3.m   X ; P } $.#.] _ ( B B B B c c c c b M c B B B C V C ( B B M z c B _ }  .$.&.&.&.$.$.{ ( / ) ..<.e.j.j.k.",
"q.u.p.n.G.R.).W.c.3.n   . & P } $.} ( c a s c V ` ` ] ] ` ` ( B c s 9 9 9 p s s c B ( ) ` } } $.@.&.$.&.$.} E i w M =.r.l.V.G.G.",
" .$.*.a.n.I.!.U.c.9.m X o q E }  .` B 9 - 4 z ( } #.$.$.#.@.] ( z 7 + O O + < 9 c / ] } $.#. .#.@.$.$.&.$.} P 1 $ g F d.V.L.W.).",
"U Y } q.v.V.L.K.x.0.F h 0 b `  .@._ b 7 - 7 s ( ] $.$.$.$.$.@.` c 9 * X X X X 2 s ( } $.&.$.$.@.$. .$.@.} _ x ; $ g G s.c.I.).!.",
"L L ~ *.p.b.B.M.x.f.3.1.-.| o.$.' ( P s p s c ( ` ] #.$.$.$.#.] ( c 9 < X . X + a ( } $.&.&.$.$.@.} } ] _ ( d 3 1 M =.y.z.V.J.J.",
"L L W $.5.i.j.k.l.l.z.g.f.e.4.{ ! Y R I B B B b B / ) ] #.$.#.@.] ( B s 7 o X O 9 ( } *.&.$.&.@.} } ( B z z d i x Z | w.a.v.n.n.",
"Y Y ~ { $.%.5.i.j.m.K.K.B.g.w. .Y L ! ' ] ) V s p p c ` ] @.$.%. .} ] B s - o O 9 B { @.$.&.$.$.} ` B 9 7 7 a b _ } o.4.7.w.w.w.",
"@.@.@.{ ' ' +.4.a.m.L.W.G.m.p.*.' ^ O.@.$.] ( a < = 9 B ` #.$.$.%.$.@.] M 9 = - s B } } $.&.$.$.} ) c 4 = 4 z ( +.$.$.$.$.@.$.$.",
"6.6.6.*.} ! Y $.u.n.G.L.G.M.j.u.5.%.&.&.$.' b 7 o o < c ` #.$.&.$.$.$.} ( c 9 p c ( ] @.@.$.$.@.} ( c 8 , 9 c _ @.@.@.' ~ R K K ",
"k.j.j.u.4.{ Y ~ *.p.b.m.m.n.n.j.p.u.7.*.O.Q u ; X . % d _ } $.&.$.%.@.} ` C B v b ( ] O.O.O.O.O.{ E v t r t P ] O.+.' R H y e e ",
"V.V.m.k.u.%.~ Y O.*.7.u.v.b.m.M.M.v.i.*.O.H e $ . . $ d _ @.$.$.$.$.$.} } _ ) _ ( ' ~ ~ ~ ~ { ~ ~ R R J k l R Q ~ ~ R H w & & $ ",
"R.I.J.M.j.6.} Y L ! { *.u.k.V.L.G.m.v.q.O.H w & X X ; d _ @.$.$.$.$.}  .} } } } ' { ' ' ' O.{ ' ' ' ' ~ Q ~ ^ O.' ' P i q $ X o ",
"(.(.R.S.n.i.4.} ~ ~ ' $.w.k.G.W.R.G.n.u.*.' I M h g M Z ] #.$.$.@.$.$.#.$.$.$.$.%.%.*.%.%.%.%.%.%.%.%.&.*.*.*.*.*.$.X.) N g 6 6 ",
"(.(.!.L.M.v.i.w.4.4.4.7.a.m.G.!.!.T.M.k.u.6.>.:.;.-.=...X. .$.@.@. .@. .@.$.$.%.*.7.u.u.u.u.u.u.u.u.i.i.i.i.i.i.i.u.8.,.;.G G F ",
"!./.T.U.G.M.n.k.j.a.j.v.n.S.L.!.W.T.S.m.v.j.h.j.f.d.9.6.>.$.O.O.@.@.#.@.} O.O.*.6.p.j.b.n.n.n.v.b.b.v.n.v.v.v.b.b.v.k.g.f.s.s.s.",
"!.R.R.R.L.G.S.V.V.V.V.S.S.L.U.R.E.U.L.G.S.Z.S.S.Z.c.l.p.6.X.' O.{ @.@.@.O.' O.4.u.j.m.S.G.G.S.S.S.Z.S.S.Z.S.S.S.S.Z.V.B.c.c.V.c.",
"R.R.R.R.T.T.R.U.U.U.U.U.T.T.R.T.W.U.U.U.U.U.W.!.U.L.B.k.u.$.' ' { @. .} { ~ { 4.p.n.G.U.R.W.W.U.T.Y.Y.R.T.R.T.T.U.T.T.T.U.U.U.U.",
"R.R.R.R.W.W.!.(.!.!.!./.W.W.R.R.E.E.W.W.!./.).`./.R.S.b.u.$.~ ~ { #.$.} ' ~ { 5.p.m.L./._.(.!./.!.).W.!.!.!.!.!.!.!.!._.).!.!./.",
"R.R.R.R.W.!.).!.!./.!.!.!.W.W.R.E.E.W.W.W./.).`.`.W.H.b.u.%.~ ' { #.$.O.' ~ { 4.a.m.L.!.(.`.).).!.!.!.).W._.!.).!.!.!.!.).)._.!."
};
