/* XPM */
static char *c3fe8c5817f241c79bec1e3ceb756f1aVbQcDn104Kz56UHJ[] = {
/* columns rows colors chars-per-pixel */
"50 50 87 1 ",
"  c #005C35",
". c #005F3A",
"X c #2D553F",
"o c #01603D",
"O c #0C613F",
"+ c #14603F",
"@ c #0F6240",
"# c #146240",
"$ c #1A6242",
"% c #216344",
"& c #2B6E4D",
"* c #326F50",
"= c #3A7153",
"- c #558A6F",
"; c #588B70",
": c #579273",
"> c #739985",
", c #7E9E8C",
"< c #84A793",
"1 c #88A494",
"2 c #86A894",
"3 c #8AAA97",
"4 c #8DAA99",
"5 c #92AB9B",
"6 c #9DADA2",
"7 c #9DB2A3",
"8 c #A1B4A6",
"9 c #A3B5A8",
"0 c #ADC9B6",
"q c #ADCFB9",
"w c #B5CBBB",
"e c #BACCBE",
"r c #AFD1BA",
"t c #B4D2BD",
"y c #B8D2BF",
"u c #BDCFC1",
"i c #B7D6C0",
"p c #BCD4C2",
"a c #BED9C5",
"s c #C1D5C5",
"d c #C2D8C7",
"f c #C9D5C9",
"g c #C5DAC9",
"h c #C6DCCA",
"j c #C8DBCA",
"k c #C9DBCC",
"l c #CADECD",
"z c #CDDDCF",
"x c #CEDDCE",
"c c #CEDFCF",
"v c #D0D8CE",
"b c #D1DBCF",
"n c #CFDED0",
"m c #D4DAD1",
"M c #D6DBD3",
"N c #D0DED0",
"B c #D0DFD0",
"V c #D0DFD1",
"C c #D2DFD2",
"Z c #D4DFD1",
"A c #D4DFD2",
"S c #DBDFD7",
"D c #D2E0D2",
"F c #D3E0D3",
"G c #D6E1D3",
"H c #D4E1D4",
"J c #D7E2D4",
"K c #D7E2D5",
"L c #D9E2D6",
"P c #D8E2D7",
"I c #DBE3D7",
"U c #DBE3D8",
"Y c #DCE3D9",
"T c #DBE4D8",
"R c #DCE4D8",
"E c #DEE5DB",
"W c #DFE7DB",
"Q c #DFE6DC",
"! c #DFE8DB",
"~ c #E0E6DC",
"^ c #E1E6DC",
"/ c #E0E8DC",
"( c #E2E9DE",
") c #E3EADF",
"_ c #E4EAE0",
"` c #E5EAE1",
"' c #E5EDE0",
/* pixels */
"X& o....$$#$##$#$o.......$$#$##$#$. .o.. o$$#$#$$=",
"&,97889844544545378878998345355354989797973454541:",
" 8)E)))Eksdshdhgd)`!^)_^!ggdsgaggg`)!))_QUdhdggdp-",
"o7)JEIbEgypsppptaTDLTEHD!sypspsptsUCLTUHJUpapppsw-",
".8_ULGIQgtsppspppGUETLJEQspspsppppJLTQJJQUppspssw-",
".8)LGIY!gppssppppETTUJIYTspppspspsQEYLHTUUpppspae-",
" 8)GU!ELgpsspspss!ETLETELspsspspagQQLLQETLppsppsw-",
".6HCHJxGdtpwptpytGDxHHGxJptptpwptpHCCJHnnHipptptw-",
"%<itwtrrdnknxjnnkttttwttthxkCxkxCgrtttwtyrxkkDkns;",
"$3gppsppnU!ELE!^GyysypsppDTEULE!^CipspspppJT!TI^M;",
"@5dpspppg!LHLYULxysspsyspk!LDQUQLkpspsspspDEIHT!m;",
"$3sspsdtxEHTEELLGpppsysstCTJYUUJLnpppppsptLLLTL!x-",
"$3jpppppkLLEUUJQJtssyssppxLEEYLGUCtsspsppaDJEEULv;",
"$4dpspawg!QYLHTQHpstsppstxEEELDE!DpspsppawD!YTGEm;",
"$3gappppn!YLLLETxppssppppCELLLETTkppspppppHU!HL!m-",
"#4dwppsuk^LLEELLJwapyptstC^LLL)LUnwppuppstL^GLE)m-",
"$4hdsagdpiypypyppgdddsdsdppippiippdadgasgsppyppi0-",
"o7`LLE!^gtpayppwpTJ!QLQ!^dtpptpptdTTQLLTQEptpptpw-",
" 8~GL/ELdpsppdpspLQHJUJQLapspsppssLELG!QUHpaspssw-",
"o7~LLELLgpppsyspp!THYTQJLdpppspsysQJJELTLLappsppe-",
".7)LELGQgtssysppsTJUQULJEapsspsppgTGTLTLLEppappsw-",
".8)ILLUEgpsysssppHTTULLYEspppsppppL!QEJJELpsppsae-",
".7^JGULEdppspppppQLEJHTUUsppsppppsEUTJLEELpppspsw-",
".9)U~~EYjysppppsaQ!LQQ^UYauspspsss^QLU^!LLppspspw;",
"O5kdkhdhppptpppppghsgggdjppptpyptpjddhggdgpptippw-",
"%2pwtttrjLDEJDLTCtttttttqCLCEGHTQxwtyttttrGJJTDTb-",
"$4jpssapjEELLETQDtsspssppxLQLLTTUxysspdsapCUQLJQm;",
"+4apspapk^LG!LTLCpspsspsiCQJJYTQLxpsysppspHEJLU!m;",
"$1gppsptnYJYTELLJppappsptDUJEYQGTCypsppsppCLJTYQf-",
"#5gpspppjLETEGL^GtsppspspxUTTUHUECtsppspppCLEYYTm;",
"$3ssppswjEUEDLYYCpspsppptCQUTGLEExuspsppppGEELA!m;",
"#4fpaspaxEELREQUCtpspssspC^YLTETUxysspspsaDEQLY^m;",
"$4awptpwdLxCGCCbxtpttptpwkJDDJHxDktptptypwnJxDHHf-",
"O5CCkxnDarttttttpCkxDkxnVprttwttrpDlnnjDxxttttrt0-",
".8`LL!Q^gisspsppsTUQLLQQ^siaspsppdTTQLUEQTppsapdw-",
".8EGETTLdpstsppppLULH!TULppspsppsp!TGJEETGpappsaw-",
".7!UUYJUjppsppspaQJUUTTGEdppsppstsQJLUTTJLsppspse-",
".7`LUJLQjtsppspsaJJUUEJU!apsppsppdJUYQTGU!ppsppsw-",
".8`LLLTQgpspsppppJEEQGTUYspppspspp!YYUGLUQpspsspe-",
".8`DLEUUsppspsppsYLUHUTELsppspsppg!UUJUEUDpppspsw-",
".8!H!EJUgtstpppppLYJT!EHYatstpppta^UJTYYJQppptppw;",
"$3aptypisgdsgagsapyippptpdssggpddapipppitpddagsdp-",
"$1dptapwxRUELEE~CppptppptDLEELTE^CtpptppitJLQ!LQm;",
"#5fpspspgEEGLYYLCtsppspppkEEGLTE^ktsspspspCUTHLQm;",
"$3asppswx^JLE!LJDadpsppstD/GLELLLnpppspsstLECI!Ev;",
"$3gppappxUJYIIJUHypappsppbLLETIJYCtpsppsppJHYYLEv;",
"#4spspstgLLULCJUDysppsppykRLLLGLQntstpppptxTUUGLb;",
"#4jgdgdaC`))Q__`JssggsgdpR)))E))`CsgggsgdsQ))Q!'L-",
"*>63444477777998734534444798788876345354447987896:",
"X*.$$#$$@..ooo..o$$@$$$$#oo.oo. oo$$#$#$#$ooooo o="
};
