/* XPM */
static char *c57592d35f574d57d8070ecd6d57dcdfyQr3WIzF6hlMtEYg[] = {
/* columns rows colors chars-per-pixel */
"50 50 213 2 ",
"   c None",
".  c #05011A",
"X  c #0E031A",
"o  c #090216",
"O  c #11041F",
"+  c #2C101E",
"@  c #39191F",
"#  c #0D0322",
"$  c #050124",
"%  c #140524",
"&  c #1B0624",
"*  c #1E0A25",
"=  c #230624",
"-  c #240A25",
";  c #2C0D26",
":  c #280724",
">  c #310D26",
",  c #3B0D26",
"<  c #2E1225",
"1  c #351326",
"2  c #3B1326",
"3  c #3B1A24",
"4  c #5F0C13",
"5  c #620D13",
"6  c #6B0E13",
"7  c #651414",
"8  c #6A1615",
"9  c #731314",
"0  c #7C1B15",
"q  c #791514",
"w  c #692419",
"e  c #7A2418",
"r  c #450924",
"t  c #421126",
"y  c #4C1125",
"u  c #451B26",
"i  c #4A1C26",
"p  c #451929",
"a  c #481928",
"s  c #541425",
"d  c #591623",
"f  c #531D28",
"g  c #581E26",
"h  c #661825",
"j  c #721F24",
"k  c #4D232A",
"l  c #4E282B",
"z  c #462028",
"x  c #542227",
"c  c #542528",
"v  c #5D2529",
"b  c #572D2B",
"n  c #5D322A",
"m  c #6A2226",
"M  c #682B27",
"N  c #642329",
"B  c #6C2528",
"V  c #622928",
"C  c #652627",
"Z  c #732326",
"A  c #7A2424",
"S  c #752C29",
"D  c #7E2D28",
"F  c #782726",
"G  c #64362E",
"H  c #66392E",
"J  c #6A382C",
"K  c #723228",
"L  c #7D3329",
"P  c #783727",
"I  c #753F31",
"U  c #7C402C",
"Y  c #6D4332",
"T  c #6F4A35",
"R  c #704C37",
"E  c #8C1B14",
"W  c #852E1B",
"Q  c #892518",
"!  c #952115",
"~  c #972B18",
"^  c #8C341B",
"/  c #89391F",
"(  c #943A1F",
")  c #99351F",
"_  c #AA351B",
"`  c #A7371C",
"'  c #B13F1D",
"]  c #842623",
"[  c #832B26",
"{  c #892923",
"}  c #882925",
"|  c #853329",
" . c #8A3429",
".. c #873D29",
"X. c #8C3E2A",
"o. c #883723",
"O. c #933225",
"+. c #9C3525",
"@. c #9D3C24",
"#. c #92372A",
"$. c #943B2A",
"%. c #993B2A",
"&. c #A33623",
"*. c #A53C24",
"=. c #AB3B23",
"-. c #A23D29",
";. c #A83F28",
":. c #B33E23",
">. c #B0431F",
",. c #8A432A",
"<. c #89482D",
"1. c #9C4321",
"2. c #954129",
"3. c #9A4529",
"4. c #9C4A29",
"5. c #9B5128",
"6. c #894D31",
"7. c #964631",
"8. c #975333",
"9. c #9B5332",
"0. c #9E5935",
"q. c #A44323",
"w. c #AC4224",
"e. c #AA4B25",
"r. c #A3432A",
"t. c #AC442A",
"y. c #AC4B2A",
"u. c #A24B29",
"i. c #B54424",
"p. c #B84525",
"a. c #B44A25",
"s. c #BB4B26",
"d. c #B54C2A",
"f. c #BB4D29",
"g. c #B34429",
"h. c #A9552A",
"j. c #B4542A",
"k. c #BC532A",
"l. c #B35B2D",
"z. c #BC5B2C",
"x. c #B65327",
"c. c #A35C35",
"v. c #A85F36",
"b. c #B35D33",
"n. c #AB6436",
"m. c #BD6232",
"M. c #B66838",
"N. c #BA753D",
"B. c #C04E27",
"V. c #C25327",
"C. c #C2542A",
"Z. c #C55B2C",
"A. c #C95D2C",
"S. c #C55F30",
"D. c #C3632E",
"F. c #CC622E",
"G. c #D1652E",
"H. c #C46331",
"J. c #CB6531",
"K. c #C66B34",
"L. c #CC6C34",
"P. c #C76E39",
"I. c #C96F38",
"U. c #D26C32",
"Y. c #D16630",
"T. c #CA743B",
"R. c #C8783A",
"E. c #D57235",
"W. c #DA7536",
"Q. c #D47438",
"!. c #DC7538",
"~. c #D57A3C",
"^. c #DB7C3B",
"/. c #D87937",
"(. c #E37E3A",
"). c #E07639",
"_. c #C07F43",
"`. c #DE813D",
"'. c #D2813E",
"]. c #E3823D",
"[. c #E8873E",
"{. c #C38748",
"}. c #C48B4B",
"|. c #D58441",
" X c #DA8542",
".X c #DB8A43",
"XX c #D58A45",
"oX c #DD9A4D",
"OX c #E18640",
"+X c #E58A42",
"@X c #EB8C42",
"#X c #F18C42",
"$X c #EC9245",
"%X c #E69448",
"&X c #EC9649",
"*X c #EE9D4C",
"=X c #E5964A",
"-X c #F29545",
";X c #F49947",
":X c #F19749",
">X c #F39D4C",
",X c #F99E4B",
"<X c #F4A24E",
"1X c #F9A54F",
"2X c #EBA251",
"3X c #F3A552",
"4X c #F6AB54",
"5X c #FBAB53",
"6X c #FBA651",
"7X c #FEB157",
"8X c #F7B059",
"9X c #FFB65B",
"0X c #FEB359",
/* pixels */
"                                                                                                    ",
"                                                                                                    ",
"                                                                                                    ",
"                                                                                                    ",
"                                                                                                    ",
"                                                                                                    ",
"                                  X X o X X X X X X X X X X X X X                                   ",
"                                % # % % % O O O O O % X % X % % % %                                 ",
"                              c n H H H Y Y T R R R R R Y Y J H G V l                               ",
"                      % X . 3 U 8.n.M.M.N._.{.}.}.}.}.{._.N.M.M.n.9.U 3 o O X                       ",
"                    # # % X 1 ,.M._.OX@X$X<X4X8X8X8X8X4X<X$X@X.X_.K.6.2 X % # %                     ",
"                  , t a k l G c.L.#X[.[.$X6X9X9X9X0X0X5X<X#X#X+X(.P.9.v p k l l l                   ",
"                r h D X.8.0.v.M.L.!.U.E./.%X4X9X7X6X<X[.`.W.U.E.E.J.b.7.7.8.c.0.6.b                 ",
"              $ y  .y.S.K.T.Q.Q.U.A.B.f.d.|.2X9X5X;X^.F.x.>.>.V.G.Y.L.L.P.T.T.T.c.n .               ",
"            & : B u.Y.!.^.(._.(.U.F.Z.d.j.~.2X0X<X`.k._ ! E ~ ' A.W.(.+X+X_.^.Q.n.Y z 3             ",
"          = r 5 $.K.(.@X[.^.(.(.(.(. X X X%X&X=X'.b.( 0 9 9 Q >.G._.&X1X,X@XI.z.b.c.0.6.n           ",
"      $ $ : d { f.W.#X-X@X].^.].@X-X>X6X5X<X[./.l./ 8 5 5 5 0 1.L.+X3X0X4XXXj.q.z.P.R.c.G $ .       ",
"      = : i A ` A.(.-X;X+X X^.].@X;X4X0X9X1X[.F.e.e 8 w w w / x./.$X4X0X4XXXu.` z.Q.^.n.U < +       ",
"    r h Z o.@.s.G.(.@X$X].^./.E.W.^.&X4X7X1X[.[.m.e.( 5.n.N.'.'.+X&X3X7X3X.XH.k.H.L.L.b.u.,.P v     ",
"% % s j O.*.a.V.Y.!.OXOX].Q.F.Z.s.z.`.&X1X1X1X[.`.D.x.K.'.2X2X=X:X-X:X&X$X X~.L.J.S.C.z.z.x.5.K % & ",
"% % s ] =.:.B.V.G.Q.^.^.E.F.s._ ! ~ m.].[.;X[.[.[.W.V.`.2X9X9X1X;X#X(.~.!.^._.^.L.C.p.Z.A.Y.h.K & % ",
"& & s ] =.i.s.B.A.Y.L.U.F.s._ ! q Q x.U.].[.(.`.K.l.>.R.oX7X5X1X#X!.H.j.j.S.U.U.J.S.V.C.A.V.r.M % & ",
"% & d } =.:.p.f.Z.A.Y.A.V._ ! q 6 8 1.D.G.G.A.x.5.^ e n.[.5X,X[.W.Z.r.W { q.k.S.S.A.A.A.B.p.O.d % % ",
"% & d } =.:.g.p.C.Z.Y.A.s.` ! q 5 7 1.z.G.V.>.! 0 8 4 5.'.[.[.(.C.+.e 5 8 W =.C.S.A.G.Z.B.&.] y * % ",
"& % s [ -.g.g.B.Z.A.U.U.Y.H.z.1.^ ^ x.L.W.U.k.q.5.h.n.R.'.[.[.K.@.0 4 5 e @.k.H.G.Y.F.Z.p.&.Z y % % ",
"% & y S +.:.f.C.A.Y.Q.^.`.]./.K.x.>.K.].@X^.U.H.'.'.oXoX*X[.E.h.e 5 4 6 Q x.L.E.U.Y.F.C.g.%.B t % * ",
"& % 2 B #.;.f.C.A.U.^.OX$X;X-X].U.G.^.@X-X@X].^.[.4X9X7X<X].m.( 7 4 9 E ` D.W.^.!.U.A.C.t.#.N 2 % * ",
"% & ; x D %.t.C.A.J.L.!.].@X#X]./.E.^.`.[.+X+X@X*X2X4X*X.XL.x.( W ^ @.e.Z.L./.^.Q.U.S.d.%.S k ; % % ",
"% % - 2 f S $.d.f.k.S.S.U.).].`.`./.Q.L.J.^.+X&X-X@XOX^.I.k.w.=.w.x.z.J.U.E.E.U.U.J.k.r.| f 1 - % % ",
"      & & k S $.-.;.=.i.V.A.U./.`./.L.x.i.L.[.-X@X^.F.k.a.=.:.a.Z.J.E.^.^.W.U.A.A.C.d. .f & %       ",
"      $ # > f S [ O.&.=.:.B.A.U.Q.!.J.k.a.J.(.@X[.Y.C.p.d.d.s.s.V.A.U.^.^.E.J.Z.f.r.#.S p $ $       ",
"        % - 1 p N D +.=.:.p.B.A.J.J.A.Z.C.J.E.^.!.A.C.C.D.L.H.k.s.k.L.E./.U.J.f.3.| m s , %         ",
"          & % * p K #.-.;.:.:.p.f.C.Z.A.J.Y.G.A.Z.C.f.Z.Y.).Q.S.:.g.Z.G.Y.J.Z.t. .f - = &           ",
"            # # ; v L  . .O.+.&.=.f.C.A.Y.A.C.C.B.p.g.C.W._.Q.S.g.i.a.k.j.j.t.$.Z , % %             ",
"              % < z v N m h j } %.t.f.C.Z.Z.C.C.f.p.g.f.S.L.U.A.V.d.r.$...| D B s > % %             ",
"                * ; ; < > > , h  .;.d.f.B.C.B.B.p.p.:.g.d.C.S.S.F.z.3.x , , 1 > - & % #             ",
"                  # # % % % * a S  .-.;.;.t.t.t.;.&.&.+.&.-.y.l.Z.l.,.1 % % % & 1 u u p 1           ",
"                    % % % # & , f N S D [ [ [ | [ ] A Z Z Z L ,.3.,.P 1 # O % 1 M ..2.L c %         ",
"                              - : > , , t t t t t , t , , > t p x k u     % % 3 ..j.k.3.V % #       ",
"                              % % % % % % % % % % % % % % % % % % # #     % # 3 X.j.C.3.V % #       ",
"                                % % % % % % % % % % % % % % % % % %         # 1 S $.3.L c %         ",
"                                                                              ; u c c i 2           ",
"                                                                                # # % %             ",
"                                                                &                 % #               ",
"                                                              % & %                                 ",
"                                                              & % &                                 ",
"                                                                & &                                 ",
"                                                                                                    ",
"                                                                                                    ",
"                                                                                                    "
};
