/* XPM */
static char *_d0cd2b37f514e94fce42693cccbcfd1HUp45GjGJwATWZt8[] = {
/* columns rows colors chars-per-pixel */
"25 25 147 2 ",
"   c None",
".  c #000017",
"X  c #00001C",
"o  c #380001",
"O  c #000024",
"+  c #0A0425",
"@  c #000028",
"#  c #150426",
"$  c #1D0725",
"%  c #220A26",
"&  c #2A0925",
"*  c #370022",
"=  c #341326",
"-  c #381226",
";  c #381E27",
":  c #4F000F",
">  c #55000E",
",  c #630001",
"<  c #700005",
"1  c #7A0000",
"2  c #7F000B",
"3  c #651113",
"4  c #762718",
"5  c #421927",
"6  c #571B29",
"7  c #5C1F29",
"8  c #641D24",
"9  c #5C2B27",
"0  c #5D2129",
"q  c #552D2A",
"w  c #652727",
"e  c #672B26",
"r  c #652B28",
"t  c #6D2C29",
"y  c #722326",
"u  c #7B2725",
"i  c #7A2C26",
"p  c #782C29",
"a  c #64392B",
"s  c #773327",
"d  c #7C3527",
"f  c #7E3628",
"g  c #7C3A28",
"h  c #73412D",
"j  c #7C442D",
"k  c #810006",
"l  c #820F17",
"z  c #8E1E14",
"x  c #8D181E",
"c  c #9B2A17",
"v  c #9D2F18",
"b  c #84331E",
"n  c #91301C",
"m  c #9F3F1E",
"M  c #A43116",
"N  c #AB351B",
"B  c #AE3E1E",
"V  c #8C2C28",
"C  c #943326",
"Z  c #983625",
"A  c #953729",
"S  c #963A2B",
"D  c #9C3D2A",
"F  c #A43524",
"G  c #A03C27",
"H  c #AD3D24",
"J  c #A23C29",
"K  c #B33E22",
"L  c #AB411F",
"P  c #9B4522",
"I  c #97452A",
"U  c #8C4F31",
"Y  c #AA472A",
"T  c #AC4C2A",
"R  c #B64425",
"E  c #BA4424",
"W  c #BD4B27",
"Q  c #B14729",
"!  c #B14D2B",
"~  c #BA4E29",
"^  c #AE5226",
"/  c #AC542C",
"(  c #B3572E",
")  c #BD552B",
"_  c #BC582A",
"`  c #AF5E35",
"'  c #A56137",
"]  c #AA6C3B",
"[  c #BA6535",
"{  c #BE6A37",
"}  c #B77038",
"|  c #C45227",
" . c #C3522A",
".. c #C9562A",
"X. c #C65A2C",
"o. c #CA5D2C",
"O. c #C45D30",
"+. c #C5602F",
"@. c #CB632E",
"#. c #D3622B",
"$. c #C36531",
"%. c #CB6531",
"&. c #C66B34",
"*. c #CC6B33",
"=. c #D26C33",
"-. c #CD7035",
";. c #C5733B",
":. c #CA773D",
">. c #D47336",
",. c #D97537",
"<. c #DC7937",
"1. c #D47639",
"2. c #D77B3C",
"3. c #DA7C3C",
"4. c #E17936",
"5. c #E07E3A",
"6. c #A97541",
"7. c #AD7B44",
"8. c #DE813F",
"9. c #E3833E",
"0. c #C78845",
"q. c #CA8D46",
"w. c #D98540",
"e. c #E38740",
"r. c #E38943",
"t. c #EC8D42",
"y. c #E59047",
"u. c #EC9244",
"i. c #E0964A",
"p. c #E79E4F",
"a. c #EC9849",
"s. c #F29445",
"d. c #F59F4D",
"f. c #F99F4B",
"g. c #F2A251",
"h. c #F6AB56",
"j. c #FFAA52",
"k. c #FBAD56",
"l. c #FFAF55",
"z. c #FDAD56",
"x. c #FEAE56",
"c. c #FEB158",
"v. c #FEB259",
"b. c #FFB359",
"n. c #FFB459",
"m. c #FFB95C",
"M. c #FFBA5D",
/* pixels */
"                                                  ",
"                                                  ",
"                                                  ",
"                O O X X . X X O O                 ",
"              q U ' ] ] 7.7.] ' U q               ",
"          % @ j 3.u.f.n.M.n.f.t.2.j @ %           ",
"        e T [ &.=.| :.m.k.9.*.@.=.$.&.;.h         ",
"      * / 4.9.9.<.$.:.g.8.M 1 v =.y.t.,.' a       ",
"    & x *.s.e.9.s.k.n.<.L : o P 8.v.p.c %.;.;     ",
"@ 8 Z R =.t.2.%.*.a.n.9.$.^ 0.i.u.d.y.$.%.%.( g @ ",
"@ V E | =.1.@.N k &.9.9.-.@.h.l.t.1.-.2.O.W #.I @ ",
"O y K R ..@.L 2 > ^ =.L < 4 a.9. .b b ~ o.o.R u O ",
"@ y R W @.,.>.+.P -.<._ } q.u.-.l , n *.=.+.H y @ ",
"O 0 A ~ %.2.s.t.=.9.u.9.g.n.r.^ 3 z _ 3.,. .S 7 O ",
"  % 6 S Q ~ *.<.5.+.+.s.t.=.~ Q _ *.>.=.o.Q 0 #   ",
"    @ 0 V F E o.=._ ) 9.=.E _ _ | ,.,.X.Y s +     ",
"      @ 0 A Z K R X.@...W ) 2.*.H  .o.! t O       ",
"        - 0 6 u J ~ ..| E E O.%.o.I e w # @       ",
"          @ O = i A G D Z V C T ( 9 O @ t d =     ",
"                $ % % % % % % % %     O ! _ 5     ",
"                @ O @ @ O @ O @       + s f =     ",
"                                        @ O       ",
"                              # #                 ",
"                                                  ",
"                                                  "
};
