/* XPM */
static char *_7e458838e964604eee414805f8c3f25AYW6leQZC3QrjRAD[] = {
/* columns rows colors chars-per-pixel */
"64 64 77 1 ",
"  c #6AB346",
". c #6DB44C",
"X c #70B64F",
"o c #73B753",
"O c #76B857",
"+ c #77B959",
"@ c #7BBA5D",
"# c #7FBC63",
"$ c #81BD66",
"% c #84BF69",
"& c #86C06C",
"* c #88C16F",
"= c #8BC373",
"- c #92C67A",
"; c #96C87F",
": c #97C980",
"> c #9BCB84",
", c #9FCE89",
"< c #A1CF8B",
"1 c #A3D08E",
"2 c #A6D292",
"3 c #A9D494",
"4 c #AED69A",
"5 c #B3DA9F",
"6 c #B5DBA2",
"7 c #B9DEA6",
"8 c #BCDFA9",
"9 c #BDE0AB",
"0 c #C1E3AE",
"q c #C3E4B0",
"w c #C3E4B1",
"e c #C5E5B2",
"r c #C5E5B3",
"t c #C6E6B4",
"y c #C6E7B4",
"u c #C7E7B5",
"i c #C8E7B6",
"p c #C8E8B6",
"a c #C9E8B7",
"s c #CAE8B8",
"d c #CBE9B9",
"f c #CBEAB9",
"g c #CBEABA",
"h c #CCEABA",
"j c #CEECBC",
"k c #CFECBE",
"l c #D0EDBE",
"z c #D1EEBF",
"x c #D1EEC0",
"c c #D4EFC2",
"v c #D4F0C3",
"b c #D5F1C4",
"n c #D6F1C4",
"m c #D7F1C5",
"M c #D8F3C7",
"N c #DAF3C8",
"B c #DAF4C8",
"V c #DCF5CA",
"C c #DCF6CB",
"Z c #DEF7CD",
"A c #DFF8CE",
"S c #E0F8CE",
"D c #E1F8CF",
"F c #E1F8D0",
"G c #E1F9D0",
"H c #E2F9D1",
"J c #E4FBD3",
"K c #E4FBD4",
"L c #E5FBD4",
"P c #E5FCD4",
"I c #E6FCD5",
"U c #E6FDD6",
"Y c #E8FED7",
"T c #E8FED8",
"R c #E9FFD9",
"E c #ECFFDB",
"W c #ECFFDC",
/* pixels */
"&*%$#@@@@@@@@@#@@@@@@@@@@@@@@#$%%%#@@@@@@@@@@@@@@@@@@@@@@@@#$%*%",
"&&&%$############$$##$#$$####$%%%%$######$$##$#$$##$$$$##@$$$%**",
"%&&=-;:;;;;;;;;;;;;;;;;;;;;;;-=%%=-;:;;;;;;;;;;;;;;;;;;;;;;-=*%%",
"$%=,47776555565555555555556653:==:35665555555555555555566653:=%%",
"#$-4qxmvlhhhgghhgghggggghjlli6<%*<7illhhhhhhhggghhhhhhhhllh83-$$",
"@#;5hZUFSZZZZZZZCAAZAAAAASJLCi3==3rCJJSZZZZZZZZZCSSSZZZSSJCh5;$@",
"@$;4rmFFJJUUUULUPPPPPPJUJYTWFh3==3hFTWLLPPPUUJUUJJUJJPUUEEPl6;#@",
"$$=<49gmSJUJUFUFUPFPUSJJJJTTSh3==3hSWTLLJJPFJPUFJJJJJJJJTTSl6;@@",
"%%==-,5rmSUJSFFFLFFFFFFJFFLUCi3==3iCUPSFFFLSFJZJAUFFFFJFIYSh5;$@",
"&%%#+$>7lFUJFSSFAFAAAFFAFFLJCu3==3rCJUSFSSFAFASAAFAAZSZJJUZh5;#@",
"=%$@.o-6xFYJFSSSFAFAAFAFSFUUZi3==3iCLLFSAFAFAFAFSAAFFFSFJYZh5;#@",
"*&$+ .=5lSLJFFSFAFAFFAFASUTTFh3=%3rCUUFFFAFAFAFAAFFAFAFFJJZh5;$@",
"&&%@.+;6lFUJFAFAFSFASFSFSFTTSh3==3iCJIFSAFAFAFAFFAFAFSFFJJSh5;$@",
"&&&$$=19mSLJFFAFZFAFFSSFSSFFMr2==3rCLLFFFAFAFAFAAFAFSSSFJJZh5;$@",
"$%=->37pmAUFAFFAFSSFJJFFFNMlr4:%=3iCLLDSAFAFAFAFFAFADSSFJLSp5;#@",
"$$-16qjmCAFFFAFAZSJJUJUUFxq6<-&$-4hZLLFSFAFAFAFAAFAFFSFFJLCh5;$@",
"@$;4uCSFFFSFSFSSFAFKFKUJFl6>%@O#-5gCJUJAAFAFAFAFFAFAFAJFKUAg5;$@",
"@#:6lFTUFSFZFAAFFACmCmSJSl7,%#@#-4iCUUAFFAFAFAFAAFAFAFAASUCg5;#@",
"@#:7cUWTLFZZAAFUUZmu9qlCFMi62;*$-4pCJUFSAFAFAFAFFAFAFAAJUPAg5;#@",
"@@:7xUETFFSSAFUUTZg5<29cSSCxu5;*=3iBUJFFFAFAFAFAAFAFAAASJUAg5;$@",
"@$:6jSTUFFFSSSJUUN0<*-5jSLYPMr2==2rZJUSZAFAFAFAFFAFAFAAJJUSh5;$@",
"#$-30lMZSSFFFSZCMg7<-,7jSYETFg3==2rCULSSFAFAFAFAAFAFAFFFJUSh5;#@",
"$$=>36rlNFJJJZMh066447umSLTTFh3==3uZJUFFAFAFAFSFFAFAFFAFUTFl6;#@",
"%%*%=-30cFLLJCh62<49jmNZSJUUSi3==3rCUJJAFAFAFAFSAFAFAAFFYTPl6;#@",
"%%%$@%<7xFLTLCr1*=3gSLLFSFUUCu3==3rZLLFFSFSSFSSSFSFSFSSFPJZh5;#@",
"%%===:40MSTTTZr<#$3jJETLFFUUSi3==3uZULFFFFJSFFFSFFFFFJFZCMh83-$#",
"$$=<48hMZJTETFi<%%3lLWEYJUYTFh3==3iFTTUUJLJJYJUJUFLLUTLZlq52;-$$",
"#$;4uMFFJUYETSp3==4hFWTYUYTESh3==3hSTTUUJULULLJLUUULTTLNr4;=%%%%",
"@#;5hZUFZCZSFMr1==3rZZFZCSSFCr2==3qMJFSCCCCCCCCCCCCZZSZl6:$O$%%%",
"#$;30jxlhuihhr5:%%>6rhhariphr6<*=<6uhhhupriruiuruurigli7<%o.@%%=",
"#$=>3564333331>=##=,23333333<,-%%:245433223333322233433<-$OO$%%=",
"%%==----======%$##$%==========%*%==---===*=*===========%$$@$%%%%",
"&%$$###%*======----============&%%$@$%%===========*==*==---===%%",
"==$#oo#-,33333344543222333332,;=%@oo@=<343322333233323334552:=%%",
"&%$#Xo=<7phgiiuuhipiuuiuuuhhq62=#o.o%<6ihhipuuirriruirrihli72-$#",
"&&$#O#:6jZFSZCCCCCCCCCCBCZFFMu4-@oo@-5gZFSCCCCCCCCCCCCCCSFCi5;$@",
"%%===;3rMUYYUUPPJLUJUJPYUUTTFh5-##%-30NJTTUJUJJUJLUJUJUUTTFx6;#@",
"$$=:26rlCUYUJUJPLLLLUUJJJUTTSg4-$-<50xCJUUUJFULJLLLYJJLYTWFj6;#@",
"#$-38hmCSFJFAAFFFFFFFFFFSJTYAp3=%<7gMCZSJJFFFFFJFFFFFFFJTTSj5;#@",
"@#;6hZULSFSFJAFFFSFSSSFSFFJLSr2=%3uCJLFSFSFFSSFASSFSSSSFJUZh5;#@",
"@#:6xLTUFFAASAFASSAFAFAFSFUUBi2==3lFTYFFSSSFAFAFFSFASFSZJLZh5;#@",
"@#;6jFTUFAFJASAAFSFAFAFAFFUJAr3==4hFYUFSFSFSFAFAAAFFFZFJJYZh5;$@",
"@#;6lZULFFAFJAFFSFAFAFAFSFJUBr3==3iCUUFFAFSFAFAFFFAFAFFFJUZh5;#@",
"@#;5hZLLFAFAAAAFFSFAFAFASFLUZr3==3iCUUFZFAFAFAFAAAFAFAFFJLZh5;$@",
"@#;5hZLLFFAFAFAFAFAFAFAFFFUUZp3==2uZLLFFAFAFAFAFFFAAFSFFLYSh5;$@",
"@#;6hZUJFAFAFAFAFAFAFAFAFJTTFg4=%2aNLLFSFAFAFAFAAFAFSSSFYTUl6:#@",
"@$;5gZLFJAAFAFAFAFAFAFAFSFUTFh3==3iNLLFSAFAFAFAFFAFFSSFFUYJl6;#@",
"@#;5hZUUFAFAFAFAFAFAFAFASFFAm01==3iZLLFFFAFAFAFAFFAAJSFSSSMi4-$@",
"@#;5hZUJFSSFSFFFFAAFFAFFFBbg84;&-3iCUJFFAFAFAFAFAAFFGFACbg96,-$#",
"@$;5hZJLFSFSFZFAFAFAFAKGFb04,-$$-4iCPUFSFAFAFAFAAFAAGJFmr5,;==&&",
"@#;5hZJJFFSFAFAFSFAAFFUJFj7>$+O#-4iCUJFFAFAFAFAFFAFAKUFz7,$##$&&",
"@$;5hZYUFFFSFAFAAFSAAFJUFx7,=#@#;4hCJUFSFAFAFAFAAAFFAJJb91=$&&&&",
"@#:6lFTTUFJFAAFAAFAJAFFJAmg73;=$-4hSTTUJFFFFSFSFFFAAFUFnp94>-=&$",
"@#:6lJETUUUFFFAFFAFAFFFFZCCxi6>%=4lFTTUUUFFFSSFAAAAJFFAAnmp92-##",
"@#;5hSULFFFZAAAFAFFAAFSFFFFUCu3==3iCUUFFSAFASSFSFAFAAFAFKJCf6-#@",
"#$-30xmclvvCAUFFAPFFFFFFFKTTJh4=%<7lvvvxmCAFJFFFFFFFFFFJRRFb7;#@",
"$$=,479967rvSUUULLLLLKFLKRWWLj4-$-367777rxZLTLLLJJJJJJJUWWUx7:#@",
"&&==:>>:;<5pCYTYLLLLULULLLWWLl6-$%-,<:;>4iNYTTLUUPPPPUJYRWFx6:#@",
"&&&&&$$@+&19cFJSSZZZZZZZZZFFNu4-$@#$$@+$>8cSUSZZCZZZZZZZGFAg5;#@",
"&&&##@+..@;4rllxhhgagghhgxxxg72-#@@@@o.@-40hllhhhhhhhhggxjg92-%#",
"&&&$###+@$=1366655555556556643>=$$#$#@@#=>456655555555566653:=%$",
"&&&&&&&&&&==;;::::;;;;;:;;:::-=%%$%%%$%%==;;::;;;;;;;;;;;;;-==&&",
"&&&&&&&&&&$$$###$##$#########$$&*&&&&***%%$@$$$@#$$$#$####$$$&&&",
"&&&&&&&&&&&$@@@@@@@@@@@@@@@@#$$%&&&&&%*%%$@@@@@@@@@@@@@@@@@#$%&&"
};
