/* XPM */
static char *b5a035cdee404cb4df4b915c518a042726ZmGgii4C4NvWLn[] = {
/* columns rows colors chars-per-pixel */
"64 64 5 1 ",
"  c None",
". c #071821",
"X c #306850",
"o c #86C06C",
"O c #E0F8CF",
/* pixels */
"                                                                ",
"                                                                ",
"                                                                ",
"                                                                ",
"                                                                ",
"                                                                ",
"                          .............                         ",
"                      ....XoooooooooooX...                      ",
"                   ...Xooooooooooooooooooo...                   ",
"                 ..XooooooooooooooooooooooooX..                 ",
"               ..oooOOOOooooOOOOOooooooOOoooooX..               ",
"             ..XoooooooooooOOOOOOOooooooooooooooX..             ",
"           ..XoOOOoooooooooOOOOOOOOooooooooOooooooX..           ",
"          .XoOOOOOOOooooooooOOOOOOOoooooooOOOOooOoooX.          ",
"         .XooOOOOOOOOoooooooooooooooooooooOOOOoooOoooX.         ",
"        .XXoOOOOOOOOOooooooooooooooooooooooOOooooooOooX.        ",
"       .XoooOOOOOOOOooooOOOooooooooooooooooooooooooOOooX.       ",
"       .ooooOOOOOOOooooOOOOOooooooOOooooooooooooooooOOoo.       ",
"      .oooooooOOOoooooOOOOOOoooooOOOOooooooooooooooooOOoo.      ",
"     .ooooooooooooooooOOOOOooooooOOOOoooooooOOOoooooooOOoX.     ",
"    .Xo.ooooooooooooooOOOoooooooooOOooooooOOOOOOoooooooOOoX.    ",
"   .XoXXooooooooooooooooooooooooooooooooooOOOOOOooooooooOOoX.   ",
"   .XoXooooooOOOOOOOooooOOooooooooooooooooOOOOOOooooooooOOoX.   ",
"   .oooooooOOOOOOOOOOoooooooooooooooOOOOOOOOOOOOOooooooooOoX.   ",
"  ..oXooooOOOOOOOOOOOooooooooooooooOOOOOOOOOOOOOOooooOOOoOooX.  ",
"  .oooooooOOOOOOOOOOOoooooOOOooooooOOOOOOOOOOOOOOoooOOOOooOoX.  ",
"  .oOOOoooOOOOOOOOOOOoooooOOOOoooooOOOOOOOOOOOOOOoooOOOOooOoo.  ",
" .XoOoOoooOOOOOOOOOOOoooooOOOOoooooOOOOOOOOOOOOOOoooOOOOooOOoX. ",
" .XooOOoooOOOOOOOOOOoooooooOOOooooooOOOOOOOOOOOOOoooooOOooOOoX. ",
" .XooooooooOOOOOOoooooooooooooooooooOOOOOOOOOOOOOooooooooooOoX. ",
" .XoooooooooooooooooooooooooooooooooOOOOOOOOOOOOOooooooooooOoX. ",
" .XooooooooooooooooooOOOOOooooooooooooOOOOOOOOOOOooooooooooOoX. ",
" .XooooOOOoooooooooOOOOOOOOoOooooooooooooooOOOOOOoooOOoooXoooX. ",
" .XooooOOOOoooooooOOOOOOOOOOoooooooooooooooooooooooOoOoooooooX. ",
"  .ooooOOOOooooooOOOOOOOOOOOOooooooooooooooooooooooOOOooooooX.  ",
"  .oooooOOOooooooOOOOOOOOOOOOooooooOOOoooooooooooooooooooooXX.  ",
"  ..ooooooooooooooOOOOOOOOOOOooooooOoOoooOOOoooooooooooooooXX.  ",
"   ..oooooooooooooOOOOOOOOOOOooooooOOOooOOOOOOoooooooooooooX.   ",
"    ..ooOooooooooooOOOOOOOOOooooooooooooOOOOOOoooooooooooXX.    ",
"     ..oooOoooooooooooooooooooooooooooooOOOOooooooooooooXX.     ",
"      ...ooOOoooooooooooooooooooooooooooooooooooooXoooXX..      ",
"        ..ooOOOOOoooooooooooooooooooooooooooooooooooXX..        ",
"         ..ooooOOOOOOOoooooooooooooooooooooooooooXX....         ",
"         .X...ooooooOOOOOOOooOOooOoooooooooooo.....XXX.         ",
"         .XXXXoooo.ooooooooooooooooooooooo....XXXXXXoo.         ",
"          .oXXXXXXX.......................XXXXXXXoooo.          ",
"          .oooooXXXXXXXXXXXXXXXXXXXXXXXXXXXXooooooooo.          ",
"          .oooooooooooooooo..........oooooooooooooooo.          ",
"           .oooooXXXoooooO.XXXXXXXXXX.OoooooXXXooooo.           ",
"           .oooo.XXXXoooO.XXooXooXooXX.OoooXXXX.oooo.           ",
"           .ooo.XXXXXXooO.oXooX..XooXo.OooXXXXXX.ooo.           ",
"           .ooo.XXXXXXoO.XoXoo....ooXoX.OoXXXXXX.ooo.           ",
"           .ooo.XXXXXXoO.ooXoo....ooXoo.OoXXXXXX.ooo.           ",
"           .ooo.XXXXXXoO.ooXooX..XooXoo.OoXXXXXX.ooo.           ",
"            .oooOXXXXooO.ooXooXooXooXoo.OooXXXXOooo.            ",
"            .ooooOOOoooO.ooXooXooXo.X.o.OoooOOOoooo.            ",
"            .XoooooooooO.ooXooXooXoX.Xo.OoooooooXoo.            ",
"             .ooXooooooO.ooXooXooXooXoo.Oooooooooo.             ",
"             .XooooooooO.ooXooXooXooXoo.OoooXooXoX.             ",
"              XXoXoXoXoO.ooXooXooXooXoo.OooXooXXXX              ",
"               XooXooXoO.ooXooXooXooXoo.OXoXoXXoX               ",
"                XXXoXXXO.XXXXXXXXXXXXXX.OoXXXoXX                ",
"                  XXXXX.                XXXXXX                  ",
"                                                                "
};
