/* XPM */
static char *_221cd5c7e1b4c3ec6c939a105b6b10a8bKgFfgDCRLFqB0N[] = {
/* columns rows colors chars-per-pixel */
"50 50 5 1 ",
"  c None",
". c #4D3310",
"X c #6D4816",
"o c #86591B",
"O c #A47D4C",
/* pixels */
"                                                  ",
"                                                  ",
"                                                  ",
"                                                  ",
"                                                  ",
"                    ..XXXXX                       ",
"                   .XooooooXX                     ",
"                  .XoOOOoooooX                    ",
"                  XoOOOOooooooX                   ",
"                 .XoOOOoooooooX                   ",
"                 XooOOooooooooX                   ",
"                 XXXXoooooooooX                   ",
"                 XooooooooooooX                   ",
"                 XoXooooXXoooX                    ",
"                 .o.XoooX.Xoo.                    ",
"                 .oo.oooo.Xoo.X                   ",
"                  Xoooooo.Xoo.X                   ",
"                   ..ooooooOOoX                   ",
"                    .XooooooooX                   ",
"                    ..XooooooX                    ",
"                  ..XooXXXXXX                     ",
"                 .XXooooooooo.                    ",
"                .XOOooOOoooooo.                   ",
"                .OOOooOOOooooo..                  ",
"                XOOOoooOOooooo.X                  ",
"               .XoooooXooooooo.X                  ",
"               XooooX.XXXooooX.X.                 ",
"              .XoooXX.Xoooooo.XX.                 ",
"              .oOOoX.XXoooooo.XXX.                ",
"              .OOOoX.Xooooooo.XXXX.               ",
"              .OOooo.ooooooooX.XXX.               ",
"              .XooooX.oooooooX.XXX.               ",
"              .XooooX.oooooooX.XX.                ",
"              .XooooX.oooooooX...                 ",
"              .XoooXX.ooooXooX.                   ",
"               .XXXX.ooooX.ooX.                   ",
"                ....XooooX.ooX.                   ",
"                   .XooooX.oXXX..                 ",
"                   .XooooX.oOOooX.                ",
"                   XXoooX..oOOoooX                ",
"                  .XOOooXX.ooooooX                ",
"                  .OOOoooX...XXXX                 ",
"                  .OOooooX.                       ",
"                  .ooooooX                        ",
"                   XXXXXX                         ",
"                                                  ",
"                                                  ",
"                                                  ",
"                                                  ",
"                                                  "
};
