/* XPM */
static char *_64bc02105254276e7fc69d12829d545JxzN70mbFs6aWhmv[] = {
/* columns rows colors chars-per-pixel */
"50 50 119 2 ",
"   c #32323F",
".  c #353540",
"X  c #3F3F46",
"o  c #423E51",
"O  c #404047",
"+  c #46464B",
"@  c #4A4A4F",
"#  c #4E4E54",
"$  c #535357",
"%  c #575D55",
"&  c #555559",
"*  c #5A5A5E",
"=  c #5F6C50",
"-  c #697D49",
";  c #717F5C",
":  c #514761",
">  c #584C69",
",  c #5F5F63",
"<  c #665F70",
"1  c #636365",
"2  c #676768",
"3  c #69696A",
"4  c #74746C",
"5  c #78786F",
"6  c #726C78",
"7  c #747473",
"8  c #7B7B74",
"9  c #777778",
"0  c #7D7D7D",
"q  c #74980C",
"w  c #7D9C39",
"e  c #6B8048",
"r  c #7A8F55",
"t  c #8BB315",
"y  c #81A42D",
"u  c #9DCD00",
"i  c #A1CD15",
"p  c #9DC725",
"a  c #808077",
"s  c #828279",
"d  c #88887E",
"f  c #939D7E",
"g  c #97AA71",
"h  c #9CAE77",
"j  c #ADCC69",
"k  c #B1D265",
"l  c #7F7F80",
"z  c #817687",
"x  c #848484",
"c  c #8A8A82",
"v  c #888888",
"b  c #918E8E",
"n  c #909084",
"m  c #959589",
"M  c #9B9B8D",
"N  c #979795",
"B  c #9A9A92",
"V  c #9D9D9A",
"C  c #A5A596",
"Z  c #A2A29D",
"A  c #AFAF9E",
"S  c #AFB49D",
"D  c #B0B09F",
"F  c #B0B998",
"G  c #A5A5A1",
"H  c #ACACA4",
"J  c #AFAFAA",
"K  c #B3B3A2",
"L  c #B8B8A7",
"P  c #B2B2AD",
"I  c #BBBBAA",
"U  c #BCBCB0",
"Y  c #C0BFB2",
"T  c #BCCC94",
"R  c #C0C0AF",
"E  c #C2C2B2",
"W  c #C7C9B4",
"Q  c #C4C4BD",
"!  c #CACABB",
"~  c #CFD0BF",
"^  c #C6C6C1",
"/  c #CECDC3",
"(  c #CFCFC9",
")  c #D1D1C5",
"_  c #D3D3CB",
"`  c #D4D4CD",
"'  c #D7D7CC",
"]  c #D5D5CF",
"[  c #D6D4CE",
"{  c #D8D8CC",
"}  c #D8D8CE",
"|  c #D9D9CF",
" . c #D6D6D0",
".. c #D8D8D1",
"X. c #D9D9D3",
"o. c #DADAD3",
"O. c #DDDDD2",
"+. c #DADAD4",
"@. c #DBDBD4",
"#. c #DBDBD5",
"$. c #DCDCD5",
"%. c #DDDDD5",
"&. c #DCDCD6",
"*. c #DDDDD6",
"=. c #DDDDD7",
"-. c #DEDED6",
";. c #DFDFD7",
":. c #DEDED8",
">. c #DFDFD8",
",. c #E0E0D8",
"<. c #E0E0D9",
"1. c #E1E1DB",
"2. c #E2E2DA",
"3. c #E4E4DC",
"4. c #E4E4DD",
"5. c #E5E5DD",
"6. c #E6E6DE",
"7. c #E6E6DF",
"8. c #E7E7DF",
/* pixels */
"* B ! ! ! ! ! ! ! ! ! ! ! ! ! ! ! ! ! ! ! / / / ! / ) / / / / ~ ! ! ! ! ! ! ! ! ! ! ! ! ! ! ! ! ! ! ",
"* B ! ) ! ! ! ! ! ! ! ! ! ! ! ! ! ! ! ! Q H F T D G H T T A Z D E ! ! ! ! ! ! ! ! ! ! ! ! ! ! ! ! ! ",
"* B ! ! ! ! ! ! ! ! ! ! ! ! ! ! ! ! ! ! U 6 w i r > 1 y p r : 1 K / ! ! ! ! ! ! ! ! ! ! ! ! ! ! ! ! ",
"* B ! ! ! ! ! ! ! ! ! ! ! ! ! ! ! ! ! / I < q u e = t y - & + & H / ! ! ! ! ! ! ! ! ! ! ! ! ! ! ! ! ",
"* B ! ! ! ! ! ! ! ! W ! ! W ! ! ! ! ! ! Y b g j f f k h l v z c L ! ! ! ! ! ! ! ! ! W ! ! ! ! ! ! W ",
"* B ! ! ! ! ! ! ! ! ! ! ! ! ! ! W ! ! ! ! E W W Y W W W U ^ Y W ! ! ! ! ! ! W ! ! ! ! ! ! ! ! ! ! ! ",
"* C _ { _ _ ) _ _ _ #.#.` { X.{ { X.{ X.X.} } ` [ ' [ [ ' [ $.O.#.} {  .` ' ..X.{ { _ _ ) _ _ ) _ ) ",
"& G >.,.-.-.-.-.-.X._ _ _ ` _ ` ` ` ` _ ` -.&.&.>.-.-.-.-.>.#.[ _ ` ` [ _ [ _ [ _ ` >.-.&.&.>.&.>.-.",
"& G -.-.#.-.#.-.5.^ x 0 x x z x v z x 8 N #.3.&.-.#.#.#.-.5.^ z 0 x x x x x x x 9 V #.5.-.#.>.#.#.&.",
"$ G -.>.#.#.-.X.Q Z 8 8 a 8 a a 0 l r 5 c J / #.-.#.-.-.#.Y Z 8 8 a 8 a a 8 8 a 8 c J / #.-.X.#.#.&.",
"$ G >.-.-.#.,._ x 8 S K A D J P H A H K C 2 G >.-.#.-.1.) z 8 K D A D S A A A D K C 1 G >.-.#.#.&.O.",
"& G -.>.#.-.-.X.Q Z 8 5 8 8 9 r 8 8 8 4 c J / >.-.#.#.-.$.Q Z 8 8 8 8 8 8 8 8 8 4 c P ( #.-.O.-.&.&.",
"& G >.-.#.#.X.-.5.^ x z c x x x x x x 0 V ..3.$.#.$.#.#.O.5.^ x x x x x x x x x 9 V #.4.#.#.>.#.&.O.",
"& G -.>.#.-.-.#.-.#.` _ ` ` ` ` [  ._ _ ` #.$.$.-.#.-.-.$.-...[ _ _  ._  . . ._ _  .#.#.#.#.X.-.&.&.",
"$ G -.-.#.-.#.#.X.-.5.5.5.5.5.5.5.4.5.7.3.-.#.-.#.$.$.#.$.#.<.5.5.7.7.7.5.7.5.7.5.4.-.#.-.O.&.&.&.&.",
"& G -.>.#.#.-.#.-.#. . .`  . . . . . . . .#.O.X.-.#.#.$.#.#.#.[  .`  .`  . . . ._  .>.#.#.#.-.#.O.&.",
"& G $.>.#.$.#.-.5./ v x v x v x v v v 0 V #.3.#.$.$.$.#.-.5.^ x x v v x v v v v z Z #.4.#.O.#.O.O.O.",
"& G >.-.-.#.-.#.^ Z 5 5 8 8 8 8 8 7 8 4 c P ( -.-.#.#.-. .^ Z 8 4 9 8 8 8 8 5 8 4 d P ( -.-.>.#.-.O.",
"$ G -.>.X.-.<._ x 8 D D A A H A S K A D C 2 G >.-.$.#.1._ 0 8 K K D H H A A A D K C 1 G >.>.#.#.-.$.",
"$ G -.-.-.#.<.` Q V a 8 s s s s a s 8 8 v H ^ -.-.#.-.-. .Q V a 8 s 8 l a a a a 8 c J / #.#.-.-.X.-.",
"& G -.-.#.-.#.-.7.^ 0 9 0 s l l s l l 7 N  .1.-.#.$.-.X.-.5.Q 0 0 z r l z 0 s z 7 N #.4.#.#.#.&.-.$.",
"& G >.-.$.#.$.#.-. ._ _ _ _ _ ( _ _ _ (  .X.-.-.-.#.-.#.-.-. .( ( (  . .) _ _ _ ( [ #.-.-.O.#.>.$.$.",
"& G >.>.-.-.-.$.$.>.1.1.<.1.1.<.1.1.1.4.<.-.-.-.-.#.-.-.-.$.<.1.4.<.4.,.,.3.,.3.,.4.#.#.#.#.-.#.-.-.",
"& G $.$.#.#.#.#.#.$.#.$.#.#.O.-.#.X.$.#.#.X.#.X.#...X.#.#.#.#.-.#.O.#.O.-.O.O.O.#.-.#.#.-.X.#.O.X.X.",
", N ) ) ) / ) / ) ) ) ) ) ) ) ) ) ) ) ) ) ) ) ) ) ) ) ) ) ) ) ) ) ) ) ' ) ) ~ ) ~ { ) ~ ) ) ) ~ / / ",
"* B ! ! ! W ! ! E E E E E E E E E E E E E E E E E E E E E E E E Y Y Y Y Y Y W Y Y Y Y Y ! ! Y ! ~ Y ",
"* B ! / ! ! ! W L A K D K K K K K K D K K K K K K K K K D K K K K K K K D Y D K L K D Y ! ! ! ! ! ! ",
"* B ! ! ! ! Y L m d c x c c c d c c c c c c d d c c c c c c c c c c d c d d d d d d s C Y ! ! ! ! ! ",
"* B ! ) ! / I C 7 & , , , , , , , , , , , , , , , , , , , , , , , , , , , , , , 1 , $ d A Y ! ! ! ! ",
"* B ! ! ! ! E C 8 * 2 2 2 2 2 1 2 2 2 2 2 2 2 2 2 1 2 2 2 2 2 2 2 2 2 1 2 1 2 2 2 1 1 n Y Y ! ! ! ! ",
"* B ! ! ! ! Y C 8 , 2 2 2 2 2 2 2 2 2 2 2 2 2 2 2 2 2 2 2 2 2 2 2 2 2 2 2 2 2 2 3 1 , d A Y ~ ! ! ! ",
"* B / ! ! ! R C 7 , 2 2 2 2 2 2 2 2 2 2 2 2 2 2 2 2 2 2 2 2 2 2 2 2 2 2 2 2 2 2 2 1 1 c Y Y ! ! ! ! ",
"* B ! ~ ! ! E C 8 , 3 2 3 3 3 3 3 3 3 3 3 3 3 3 3 3 2 3 2 2 2 1 2 2 2 2 2 2 2 2 2 1 1 d D W ! ! ! ! ",
"* B ! ! ! ! E C 8 , 3 1 , , , 1 = 1 * , 1 1 * 1 1 1 = 1 = 1 < 1 1 1 1 1 1 1 1 1 1 2 1 d R R ! ! ! ! ",
"* B ~ ! ! ! E C 9 , 2 $ + @ @ @ @ @ @ @ @ @ @ @ @ @ @ @ @ @ @ @ + + + # + @ @ + , 3 1 d K R ! ! ! ! ",
"* B ) ! ! ! R C 8 , 2 $ O + O + + O + + @ o O + o + + o + + + + + + + + + + + O % 3 1 d K W ~ ! ! ! ",
"* B ~ ! ! ! R C 5 , 2 $ O + + + + @ + @ + + + + + + + @ + + + + + + + + + + + + , 2 1 c K E ~ ! ! ! ",
"* B ! ! ! ! R C 5 , 2 $ + + + @ + + + + + + + + + + + + + + + + + + + + + + + + , 1 , n K W ! ! ! ! ",
"* B ! ~ / ~ E C 5 * 1 #   o O O O X X X O o o o O O X O O O O O o o X X + O X X & 1 * d L E ~ ! ! ! ",
"* B ~ ! ! ! Y C 8 1 2 $ + + + + + + + + + + + + + + + + + + + + + + + + + + + + , 2 , n K W ! ! ! W ",
"+ d L I L L K C M m m m n n n n n n n n n n f c n n n n n n n n d d f d d f d d n m f M D K Y K Y K ",
"o a L K K K K L L L L L L L I I L L I I I L I L I L L L I L L L Y Y Y Y Y L Y Y Y Y Y L K K K K K K ",
"$ M ! ! ! ! ! ! ! ! ! ! ! ! ! ! ! ! ! ! ! ! ! W ! ! ! ! ! ! ! ! Y ! W W W ! W W Y W W ! ! ! ! Y W W ",
"# b E E Y E R R R R I E I R R R R R I L E E Y Y R R Y Y R Y E E Y Y Y Y Y Y Y Y Y Y Y Y Y Y Y Y Y Y ",
"  a D D A A A C A A A A D A A A A A A A A A A A A A A A A A A C A A A A A A A A A A A A A A A A A A ",
"  8 D D A A A A A A A A S A A A A A A A A A A A A A C A A A A A A A A A A A A A A A A A A A A A A A ",
"  a D D A A A A A A A A A A A A A A A A A A A A A A D D D A A D A A A A A A A A A A A A A A A A A A ",
"  a D D A A A A A A A A A A A A A A A A A A A A A A D D A A A A A A A A A A A A A A A A A A A A A A ",
"  s K K D A A A A A D A A K A A A A D D A A D A A A A D A A A A A A A A D D A A A A D A D A A A A A ",
"  s K F D A D A A A A A A A A A A D H A A A A A D A A A A A A D A A D A A A A D D A A A A A D A D A "
};
