/* XPM */
static char *_64fe2d0ef9a46ee8ee127395cb6701bNif2yKURzpTiZSAd[] = {
/* columns rows colors chars-per-pixel */
"32 32 101 2 ",
"   c #2D002D",
".  c #31192B",
"X  c #3E003E",
"o  c #3F373A",
"O  c #40373A",
"+  c #005200",
"@  c #005300",
"#  c #005D00",
"$  c #006300",
"%  c #006900",
"&  c #126E00",
"*  c #067100",
"=  c #007400",
"-  c #246500",
";  c #256500",
":  c #2D6712",
">  c #2F6815",
",  c #337413",
"<  c #347317",
"1  c #357318",
"2  c #386027",
"3  c #3C7625",
"4  c #430042",
"5  c #5B3859",
"6  c #595850",
"7  c #5B5C51",
"8  c #685D63",
"9  c #695964",
"0  c #2D9300",
"q  c #2CA000",
"w  c #36A300",
"e  c #36A400",
"r  c #39A400",
"t  c #47901C",
"y  c #4B8E28",
"u  c #4D8F2B",
"i  c #4FCA03",
"p  c #4DCC00",
"a  c #50C80B",
"s  c #57E300",
"d  c #58E300",
"f  c #58E400",
"g  c #57EB00",
"h  c #5AE800",
"j  c #5BEB00",
"k  c #5CEB00",
"l  c #5EF100",
"z  c #5EF200",
"x  c #5FF300",
"c  c #63FB00",
"v  c #65FF00",
"b  c #67FF01",
"n  c #68FF00",
"m  c #6CFF03",
"M  c #5E9644",
"N  c #629949",
"B  c #6AA350",
"V  c #6DA553",
"C  c #7C8671",
"Z  c #80AD6A",
"A  c #88B374",
"S  c #8EB77A",
"D  c #8DBA78",
"F  c #94BF7F",
"G  c #8FC477",
"H  c #91C679",
"J  c #95C87D",
"K  c #95BE81",
"L  c #9AC685",
"P  c #97C980",
"I  c #A6D78F",
"U  c #A9D594",
"Y  c #AAD595",
"T  c #ABD696",
"R  c #AADD93",
"E  c #ADDA97",
"W  c #B5E39F",
"Q  c #B9D0AA",
"!  c #B7E4A1",
"~  c #BBE6A6",
"^  c #C4D9B5",
"/  c #C6DBB7",
"(  c #C7E5B5",
")  c #C8E7B6",
"_  c #C8E9B6",
"`  c #CBEAB9",
"'  c #CDEDBB",
"]  c #D0EDBE",
"[  c #D1E5C1",
"{  c #D4EEC3",
"}  c #D3F2C0",
"|  c #D4F4C2",
" . c #D6F1C5",
".. c #D9F4C7",
"X. c #DAF4C8",
"o. c #DDFACA",
"O. c #DFF9CE",
"+. c #E1F9CF",
"@. c #E4FBD3",
"#. c #E7FDD6",
"$. c #EDFFDC",
/* pixels */
"v v v v v v v v v v v v v v v v v v v v v v v v v v v v v v v v ",
"v v v v v v v v v v v v v v v n v v v v v v v v v v v v v v v v ",
"v v v v v v v v v v v v v v n n v v v v v v v v v v v v v v v v ",
"v v v v v v v v v v v v n c h h c n v v v v v v v v v v v v v v ",
"v v v v v v v v v v v v m z 0 0 z m b b v v v v v v v v v v v v ",
"v v v v v v v v v v n c z a 2 2 a c b n v v v v v v v v v v v v ",
"v v v v v v v v c n m z q > N N > 0 z c b v v v v v v v v v v v ",
"v v v v v v v v c c c p ; 7 L L 6 ; i c c v v v v v v v v v v v ",
"v v v v v v v n n k r 1 u D ) ( D u 1 r k n v v v v v v v v v v ",
"v v v v v v v v n d + X A ~ +.O.~ A X + d m v v v v v v v v v v ",
"v v v v v v v n m h # 5 Q o.+.+.O.Q 5 # h m v v v v v v v v v v ",
"v v v v v v v c z p = C [ $.@.@.$.[ C = p z c v v v v v v v v v ",
"v v v v v v v k r , t K { $.#.#.$.{ K t , r k n v v v v v v v v ",
"v v v v v v n s + 4 D ! _ { ] ] { ` W S 4 + s n v v v v v v v v ",
"v v v v v n n s $ 9 / | U G J J G U ' / 9 $ s n v v v v v v v v ",
"v v v v v v n s % 8 / ] U H J P G E { / 9 $ s n v v v v v v v v ",
"v v v v v n n d = o V E ` X. . ...` E V o * f n v v v v v v v v ",
"v v v v v v n d = 5 A E ` X. . .X.' W A o * f n v v v v v v v v ",
"v v v v v v n s % 8 ^ ] U H P P H U { ^ 9 % d n n v v v v v v v ",
"v v v v v v n s $ 9 / ..T H J J H U | ^ 9 $ d n v v v v v v v v ",
"v v v v v v n d + 4 D ! ' .. . .X.' ! D 4 + d n v v v v v v v v ",
"v v v v v v n k r 1 y D ( O.....O.( D y < r k n n v v v v v v v ",
"v v v v v v v c z p ; 6 F R U U R L 6 - i c c v v v v v v v v v ",
"v v v v v v v n m z q : M V B B V M : 0 z v v c v v v v v v v v ",
"v v v v v v v v n v z a 3   . .   3 a z v n v v v v v v v v v v ",
"v v v v v v v v v v m z e + & & + w c m v v v v v v v v v v v v ",
"v v v v v v v v v v n c k d d d s h c n v v v v v v v v v v v v ",
"v v v v v v v v v v v n n n n n n n v v v v v v v v v v v v v v ",
"v v v v v v v v v v v v v v n v v v v v v v v v v v v v v v v v ",
"v v v v v v v v v v v v v v v v v v v v v v v v v v v v v v v v ",
"v v v v v v v v v v v v v v v v v v v v v v v v v v v v v v v v ",
"v v v v v v v v v v v v v v v v v v v v v v v v v v v v v v v v "
};
