/* XPM */
static char *_0b75098ccd54cae96a614c635bb223cVDQTUufo6MxbxlKc[] = {
/* columns rows colors chars-per-pixel */
"64 64 149 2 ",
"   c None",
".  c #2D002D",
"X  c #3E003E",
"o  c #3F3739",
"O  c #3F373A",
"+  c #40373A",
"@  c #005200",
"#  c #005300",
"$  c #005700",
"%  c #005D00",
"&  c #006300",
"*  c #006900",
"=  c #126E00",
"-  c #067100",
";  c #007400",
":  c #246500",
">  c #256500",
",  c #2D6712",
"<  c #2F6815",
"1  c #337413",
"2  c #347317",
"3  c #357318",
"4  c #2F5D28",
"5  c #355A32",
"6  c #386027",
"7  c #356C2D",
"8  c #3C7625",
"9  c #430042",
"0  c #5B3859",
"q  c #595850",
"w  c #5B5C51",
"e  c #685D63",
"r  c #695964",
"t  c #2CA000",
"y  c #36A300",
"u  c #36A400",
"i  c #39A400",
"p  c #47901C",
"a  c #4B8E28",
"s  c #4D8F2B",
"d  c #4D833E",
"f  c #4DCC00",
"g  c #5E9644",
"h  c #629949",
"j  c #629A49",
"k  c #64885B",
"l  c #6DA553",
"z  c #799A66",
"x  c #7A9D65",
"c  c #7C8671",
"v  c #7AC756",
"b  c #7FC755",
"n  c #878C7C",
"m  c #80AD6A",
"M  c #86A475",
"N  c #88B374",
"B  c #8DB679",
"V  c #8EB77A",
"C  c #8DBA78",
"Z  c #91BB7B",
"A  c #94BF7F",
"S  c #95C87D",
"D  c #929E86",
"F  c #90AA83",
"G  c #9DBE8B",
"H  c #9CBF8B",
"J  c #92AF94",
"K  c #93A699",
"L  c #A7A7AC",
"P  c #9AC685",
"I  c #A6D78F",
"U  c #AADE8E",
"Y  c #A6C395",
"T  c #AECA9C",
"R  c #A7D191",
"E  c #A9D293",
"W  c #A9D594",
"Q  c #ABD696",
"!  c #AAD991",
"~  c #ADDA97",
"^  c #B5DE9E",
"/  c #B6EB97",
"(  c #B3E299",
")  c #B3E499",
"_  c #B5E39F",
"`  c #B9E69F",
"'  c #B5E998",
"]  c #B9EA9B",
"[  c #BCEF9A",
"{  c #BCF799",
"}  c #BDF09E",
"|  c #AEC0A1",
" . c #B3CBA2",
".. c #B3CBA3",
"X. c #B9CEAE",
"o. c #B3D5A1",
"O. c #B5D1A5",
"+. c #B6D5A4",
"@. c #B7DDA1",
"#. c #B9D0A9",
"$. c #B9D0AA",
"%. c #B9D5A8",
"&. c #B7E4A1",
"*. c #B9E0A0",
"=. c #BAE2A5",
"-. c #BBE6A6",
";. c #BCE6A4",
":. c #C2FF9A",
">. c #C4D9B5",
",. c #C6DBB6",
"<. c #C6DBB7",
"1. c #C1E3AE",
"2. c #C2E4AF",
"3. c #C3EDAB",
"4. c #C5FFA1",
"5. c #C9FAA6",
"6. c #C6F0AD",
"7. c #C8F6AC",
"8. c #C4E0B2",
"9. c #C4E7B0",
"0. c #C6E5B4",
"q. c #C7E5B5",
"w. c #C8E7B6",
"e. c #C7E9B2",
"r. c #C8E9B6",
"t. c #CAEAB7",
"y. c #C9EEB5",
"u. c #CBEAB9",
"i. c #CDEDBB",
"p. c #CFEFBA",
"a. c #D0EDBE",
"s. c #C9F1B2",
"d. c #CDF3B6",
"f. c #D1E5C1",
"g. c #D3EEC1",
"h. c #D4EEC3",
"j. c #D0E9C4",
"k. c #D3F2C0",
"l. c #D4F4C1",
"z. c #D4F4C2",
"x. c #D9F4C7",
"c. c #DDFACA",
"v. c #DEF8CC",
"b. c #DFF9CE",
"n. c #E1F9CF",
"m. c #E4FBD2",
"M. c #E4FBD3",
"N. c #E7FDD6",
"B. c #EDFFDC",
/* pixels */
"                                                                                                                                ",
"                                                                                                                                ",
"                                                                                                                                ",
"                                                                                                                                ",
"                                                                                                                                ",
"                                                                                                                                ",
"                                                                                                                                ",
"                                                                                                                                ",
"                                                                                                                                ",
"                                                                                                                                ",
"                                                                                                                                ",
"                                                                                                                                ",
"                                                                                                                                ",
"                                                                                                                                ",
"                                                                                                                                ",
"                                                                                                                                ",
"                                                                                                                                ",
"                                                                                                                                ",
"                                                                                                                                ",
"                                                                                                                                ",
"                                                                                                                                ",
"                                                            6 6                                                                 ",
"                                                          < h h <                                                               ",
"                                                        > w P P w >                                                             ",
"                                                      3 s C w.w.C s 3 i                                                         ",
"                                                    @ X N -.b.b.-.N X @                                                         ",
"                                                    % 0 $.c.n.n.c.$.0 %                                                         ",
"                                                  f ; c f.B.m.m.B.f.c ;                                                         ",
"                                                i 1 d F Y B.N.N.B.h.H p 1                                                       ",
"                                                @ 9 n | o.0.a.a.h.e.( C 9 @                                                     ",
"                                                & r <.O.W E S ^ =.W l.<.r &                                                     ",
"                                                * e >.%.2.@.! ( ` ;.k.>.e *                                                     ",
"                                                - + D ..u.d.U / [ ' ~ m + -                                                     ",
"                                                - O D ..8.3.[ { ' ) ~ m O -                                                     ",
"                                                * e >.8.2.6.5.:.J K *.>.e *                                                     ",
"                                                & r <.z.s.s.7.4.L W T <.r &                                                     ",
"                                                # 9 B &.w.p.u.X.j.i.R B 9 #                                                     ",
"                                                i 2 a C q.b.x.x.+.H x a 2 i                                                     ",
"                                                    > q M P I I Z z q >                                                         ",
"                                                    t , g k v b l g , t                                                         ",
"                                                        8 7 5 4 . 8                                                             ",
"                                                        u $ = = # u                                                             ",
"                                                                                                                                ",
"                                                                                                                                ",
"                                                                                                                                ",
"                                                                                                                                ",
"                                                                                                                                ",
"                                                                                                                                ",
"                                                                                                                                ",
"                                                                                                                                ",
"                                                                                                                                ",
"                                                                                                                                ",
"                                                                                                                                ",
"                                                                                                                                ",
"                                                                                                                                ",
"                                                                                                                                ",
"                                                                                                                                ",
"                                                                                                                                ",
"                                                                                                                                ",
"                                                                                                                                ",
"                                                                                                                                ",
"                                                                                                                                ",
"                                                                                                                                ",
"                                                                                                                                "
};
