/* XPM */
static char *_c18408fe9394efbd9377ff454ad3cd2HlzkH898R9RQTf2W[] = {
/* columns rows colors chars-per-pixel */
"64 64 229 2 ",
"   c None",
".  c #000000",
"X  c #00000E",
"o  c #000A00",
"O  c #001604",
"+  c #000015",
"@  c #00001C",
"#  c #000B1F",
"$  c #001E11",
"%  c #002B01",
"&  c #003C00",
"*  c #023806",
"=  c #002717",
"-  c #043F18",
";  c #000022",
":  c #040D21",
">  c #040029",
",  c #0C002A",
"<  c #13002B",
"1  c #1D032D",
"2  c #051321",
"3  c #071B21",
"4  c #0A1922",
"5  c #1C162C",
"6  c #1E0033",
"7  c #230C2F",
"8  c #21182D",
"9  c #240032",
"0  c #2C0437",
"q  c #33053C",
"w  c #261430",
"e  c #2D1E38",
"r  c #0D2622",
"t  c #1A2D26",
"y  c #132624",
"u  c #183624",
"i  c #242B2D",
"p  c #23352B",
"a  c #253C2B",
"s  c #283F2D",
"d  c #2D3133",
"f  c #333936",
"g  c #282C30",
"h  c #004400",
"j  c #004C0C",
"k  c #005600",
"l  c #024D11",
"z  c #0D441A",
"x  c #095114",
"c  c #0D5A10",
"v  c #1D561E",
"b  c #1E591E",
"n  c #105C11",
"m  c #225D1E",
"M  c #285F18",
"N  c #016900",
"B  c #126010",
"V  c #1B4722",
"C  c #2B432E",
"Z  c #24432A",
"A  c #245E22",
"S  c #2B592A",
"D  c #2E4730",
"F  c #314C33",
"G  c #384239",
"H  c #3D5C39",
"J  c #375236",
"K  c #305D26",
"L  c #33682C",
"P  c #36692A",
"I  c #34642C",
"U  c #276B1E",
"Y  c #43633D",
"T  c #466A3E",
"R  c #48683E",
"E  c #4B783E",
"W  c #390046",
"Q  c #3B3243",
"!  c #42034C",
"~  c #470050",
"^  c #4C3450",
"/  c #47384B",
"(  c #414443",
")  c #4C4C4D",
"_  c #48444A",
"`  c #4D594D",
"'  c #4A5747",
"]  c #4E4752",
"[  c #53584F",
"{  c #4A6543",
"}  c #4A6B42",
"|  c #4B6547",
" . c #546C4B",
".. c #53634D",
"X. c #4D7243",
"o. c #4F7846",
"O. c #517546",
"+. c #537947",
"@. c #53734A",
"#. c #557C49",
"$. c #59784E",
"%. c #566A52",
"&. c #5B7752",
"*. c #644E65",
"=. c #676964",
"-. c #767474",
";. c #6E7F66",
":. c #008500",
">. c #4B8739",
",. c #4E8041",
"<. c #528543",
"1. c #5A834C",
"2. c #5E884F",
"3. c #578746",
"4. c #5C9948",
"5. c #5E8450",
"6. c #61944D",
"7. c #629A4C",
"8. c #628D52",
"9. c #688E59",
"0. c #67865B",
"q. c #659354",
"w. c #689756",
"e. c #699B56",
"r. c #6B945A",
"t. c #6D9D59",
"y. c #679A53",
"u. c #719E5E",
"i. c #68B74C",
"p. c #6FA15B",
"a. c #6DA555",
"s. c #72A45D",
"d. c #74AC5B",
"f. c #73B654",
"g. c #78B45E",
"h. c #7ABB5C",
"j. c #76B65A",
"k. c #6BB550",
"l. c #739E64",
"z. c #759E6A",
"x. c #738A6A",
"c. c #76A462",
"v. c #77AA61",
"b. c #7AAD63",
"n. c #7CAC6C",
"m. c #7DB465",
"M. c #7EBB62",
"N. c #7EA872",
"B. c #6EC057",
"V. c #818C7B",
"C. c #85977D",
"Z. c #80B767",
"A. c #81BB66",
"S. c #83BC6A",
"D. c #81B769",
"F. c #83A973",
"G. c #89BA75",
"H. c #88B476",
"J. c #82C165",
"K. c #86C06C",
"L. c #89C46E",
"P. c #8AC96E",
"I. c #86C868",
"U. c #8BC671",
"Y. c #8DCA71",
"T. c #8FC278",
"R. c #90CD75",
"E. c #92C67A",
"W. c #95CB7C",
"Q. c #90C677",
"!. c #95D079",
"~. c #8CD775",
"^. c #8A8685",
"/. c #8C9884",
"(. c #949C8C",
"). c #95938E",
"_. c #95918F",
"`. c #8CA682",
"'. c #92A28A",
"]. c #93AB87",
"[. c #97B68A",
"{. c #9CA993",
"}. c #9EB891",
"|. c #A5B59A",
" X c #AEB9A2",
".X c #9ACD83",
"XX c #9AC686",
"oX c #9DD384",
"OX c #A6C795",
"+X c #AAD495",
"@X c #ADD59A",
"#X c #ABDA95",
"$X c #B2DC9D",
"%X c #A4D28E",
"&X c #9FF783",
"*X c #AFED95",
"=X c #BACBAE",
"-X c #B5C8A8",
";X c #B5DCA0",
":X c #BAD5AA",
">X c #BDCBB1",
",X c #BFD3B1",
"<X c #B9E2A4",
"1X c #C2D3B5",
"2X c #C6D6B9",
"3X c #C7D9B8",
"4X c #C4CCB9",
"5X c #C1E8AD",
"6X c #CBEAB9",
"7X c #C7E5B5",
"8X c #D0E9BF",
"9X c #CFF1BC",
"0X c #CFFFB8",
"qX c #D1F2BE",
"wX c #C3FBAD",
"eX c #D5ECC5",
"rX c #D0E6C1",
"tX c #D4F4C1",
"yX c #DCF2CB",
"uX c #DFFBCD",
"iX c #D8F8C6",
"pX c #DFEFD0",
"aX c #E0F9CE",
"sX c #E0F5D0",
"dX c #E4FDD3",
"fX c #EDFFDB",
"gX c #E9FFD7",
"hX c #F1FFDF",
"jX c #F2FFE1",
/* pixels */
"                  * . . . . . . . . . . . . &                                                                                   ",
"                  h . . . . . . . . . . . . h                                                                                   ",
"                  o.] ^ ) ' ` ` ' ` ` ] ^ ] X.                                                                                  ",
"              i.n.`.(.(.(.'.(.'.'.'.(.(.(.(.'.n.i.                                                                              ",
"              z.[.=X1X2X1X,X,X,X,X,X,X1X2X2X=X[.l.                                                                              ",
"          k F V.-XrXsXdXyXyXyXyXyXyXyXyXsXsX8X-Xx.F k                                                                           ",
"          G *._.=XeXdXdXdXaXaXaXuXuXaXdXdXdXeX=X_.*.J                                                                           ",
"      i.c.x.). X:X6XtXtX9X9XtX6X9X9XqXqXtXqX6X,X X_.^.z.k.                                                                      ",
"      F.[.-X4X:X:X;X$X$X$X$X$X$X$X$X$X$X$X$X;X:X1X4X=X}.N.                                                                      ",
"& h O.'.=X8X8X6X$XXXL.G.Q.E.E.E.Q.W.E.T.K.U..X$X6XyXeX>X/.| N                                                                   ",
". . ] (.1XsXdXqX$XU.f.f.f.A.A.A.A.J.h.h.f.f.U.$X9XuXyX>X^.~ . :.                                                                ",
". . ^ (.2XdXgXiX$XU.k.i.f.h.h.h.h.h.J.f.f.f.K.%X<X9XrX X-.W . :.                                                                ",
". . ) {.2XsXgXiX$XQ.j.f.h.A.J.J.K.I.K.J.h.A.K.W.#X<X@X].=.6 .                                                                   ",
". . ` (.1XsXdXqX;XW.h.h.A.K.K.K.K.L.L.L.K.K.K.U.!.W.G.l.` < &                                                                   ",
". . ' /.=XeXiX6X$XE.A.h.J.K.K.S.S.Z.Z.S.K.K.K.K.K.J.m.q. .G K                                                                   ",
". X _ x.OX5X6X5X%XQ.J.J.L.L.S.Z.s.t.t.s.Z.S.K.I.J.h.j.a.8.#.,.                                                                  ",
". . q x.].@X$X#XoXY.L.L.Y.Y.K.v.8.X.} 2.s.S.K.U.I.S.M.m.v.s.y.4.                                                                ",
". + e &.n.G.!.!.W.U.L.P.Y.Y.S.p.X.s s } t.M.L.U.L.K.S.K.S.S.m.e.<.L l % X =                       n n                           ",
"l x P >.7.d.A.A.M.m.m.S.K.S.m.q.} p s X.t.M.L.L.K.K.K.L.R.Y.S.u.@.7 @ @ > < S                     p d                           ",
"          4.7.7.w.e.t.t.t.t.q.2.o.T X.6.c.S.L.L.K.K.K.Y.R.R.K.s.| , + ; q _ O.                  3.| | <.                        ",
"          >.R Y { R } T R T X.#.2.q.p.v.m.S.K.L.K.K.K.Y.R.R.K.u.{ @ + w  .9.t.7.                7.e.r.q.                        ",
"          P 7 1 5 t t 2 @ @ F O.e.b.S.K.K.K.K.K.K.K.K.U.Y.Y.S.t.R ; @ Y r.m.m.p.<.K & & & l L 3.s.m.m.t.@.S                     ",
"          j + @ ; y t 3 + @ F 1.s.S.Y.Y.U.K.K.K.K.K.K.S.K.S.b.q.} F F 1.v.K.S.v.1.G ; @ X + w $.v.K.K.c.[ 6 $                   ",
"          & + ; d Y X.} Y Y +.w.b.K.Y.Y.L.K.K.K.L.U.K.M.b.p.q.2.+.O.1.a.Z.U.U.D.r.$.( 9 @ + ,  .v.K.U.l.) > .                   ",
"          * + 0 } 8.p.t.e.e.u.d.m.K.U.L.K.K.K.U.Y.Y.K.v.q.O.T o.2.e.s.m.S.L.K.S.b.s.9.{ 9 X @ } s.K.K.l.) ; o                   ",
"          h ; ( 9.b.S.S.S.D.Z.D.S.K.K.K.K.K.K.U.Y.Y.S.p.O.Z p T q.b.S.K.K.K.K.K.K.S.v.8.H @ @ R s.S.S.u.' , &                   ",
"          A G @.s.S.Y.Y.L.L.L.L.L.K.K.K.K.K.K.S.K.S.m.q.T p C X.s.S.P.Y.L.K.K.L.P.R.S.s.+.F F #.s.S.S.c.$.G A                   ",
"          o.&.r.b.K.Y.R.Y.Y.U.L.K.K.K.K.K.U.S.m.v.t.q.1.X.T X.q.v.K.Y.Y.L.K.K.L.R.R.L.d.6.E E 6.d.S.S.b.r.$.o.                  ",
"        4.e.c.b.D.K.U.L.L.L.K.K.K.K.K.K.U.L.S.v.8.o.T o.1.q.p.b.A.K.L.L.K.K.K.L.R.R.L.A.a.7.7.a.Z.S.K.S.b.c.e.4.>.              ",
"j x L <.e.m.S.K.S.K.K.K.K.K.K.K.K.K.K.L.L.L.m.t.X.s a T q.b.S.K.K.K.K.K.K.K.K.L.L.L.K.K.h.g.g.h.A.S.S.K.K.S.b.q.} Z N           ",
"X + w @.p.S.Y.Y.U.K.K.K.K.K.K.K.K.K.K.L.U.L.S.e.} a s X.p.S.Y.Y.L.K.K.K.K.K.K.S.A.D.S.G.Q.W.W.W.Q.K.K.L.P.R.S.u...0 Z           ",
"+ + 9 @.s.S.Y.Y.U.K.K.K.K.K.K.K.K.K.K.K.L.L.M.c.2.X.X.2.v.K.Y.Y.L.L.K.K.K.K.S.m.a.e.c.G.OX$X;X#X.XU.J.K.L.R.K.v.&.' #.b.~.&X*X&X",
"X + g @.t.S.L.Y.U.K.K.K.K.K.K.K.K.K.K.K.L.K.S.m.s.t.t.s.D.K.U.U.L.S.K.L.L.L.S.s.3.E 0.].;X6X9X5X#XQ.A.M.J.L.K.m.e.8.c.XX$XwX0X0X",
"X + C +.t.M.L.Y.U.K.S.K.K.K.K.K.K.K.K.K.K.K.K.S.S.m.S.S.S.S.K.K.K.K.S.L.L.L.Z.y.  - ../.,XyXuX9X$XQ.M.h.J.K.K.M.g.g.G.+X5XiXaXdX",
"X + C $.t.S.Y.U.K.K.K.K.K.S.K.K.K.K.K.K.K.K.K.K.K.U.U.L.K.K.K.K.K.L.S.L.U.L.Z.7.M . Q V.=XeXyX7X$XQ.M.M.A.K.K.J.A.J.W.@X3XeXsXsX",
"X + g @.t.S.Y.Y.L.K.K.K.S.U.S.K.K.S.K.K.S.K.K.K.L.L.P.L.L.K.K.S.K.S.L.L.U.L.Z.6.K . 0 -.{.=X,X:XXXL.h.h.M.A.A.J.J.I.R.%X@X=X4X4X",
"+ + 9  .u.S.Y.Y.Y.K.K.K.K.K.K.K.K.K.K.K.K.K.S.U.K.L.L.K.U.S.K.K.K.K.K.L.L.L.Z.e.T = < ] -./.].].H.M.h.f.h.h.h.J.I.P.W.G.].'.(.).",
"X + w @.p.S.Y.Y.L.K.K.K.K.K.K.K.K.K.K.K.K.K.K.K.K.K.K.K.K.K.K.K.K.K.K.K.Y.L.D.u.+.Z @ > e _  .9.s.g.J.J.M.M.M.I.P.R.S.v.9.%._ _ ",
"j x L <.e.m.S.U.K.K.S.K.K.K.S.K.K.K.K.K.K.K.K.K.K.K.K.K.K.K.K.K.K.K.K.L.Y.L.D.a.$.C X . o . O T l.U.W..X!.W.T.T.U.S.b.6.P o . . ",
"        4.e.u.v.D.S.K.L.K.K.K.K.K.S.U.S.K.K.K.S.K.K.K.K.K.S.K.K.S.K.K.K.U.K.Z.t.O.a . . . . . &.F.OX$X;X;X$X%XXXH.s.3.P h . . . ",
"          <.$.9.c.S.K.L.K.K.K.K.K.K.K.K.S.K.K.K.K.K.K.K.K.K.K.K.K.K.K.U.L.L.S.e.X.t . . . . 5 x.}.:X6XqXqX6X:XOXF.O.h O o o . . ",
"          A G  .t.S.L.U.L.K.K.K.K.K.K.K.K.K.K.K.K.S.K.K.K.K.K.K.K.K.K.K.Y.L.Z.t.X.t . . . . ( C.-X8XuXdXdXdX6X-XC.J . . . + 2 2 ",
"          & , ' r.m.L.U.K.K.K.K.S.K.K.K.K.S.K.K.K.K.K.K.K.S.K.K.K.K.K.K.L.L.Z.s.1.H t . . o %.].,XyXgXjXfXgXyX1X{.=.8 o @ 4 @ @ ",
"          % ; G 9.Z.L.Y.L.K.K.K.U.K.U.K.K.U.K.U.U.K.L.K.K.K.K.K.K.K.K.L.L.K.S.v.w.1.O.I M P x.}.3XuXhXjXjXfXsXrX=X{.V.=.] 7 X . ",
"          % @ ( 9.m.U.L.K.K.K.K.L.L.L.U.Y.L.Y.U.U.P.L.L.K.K.K.K.K.S.K.K.K.K.S.Z.v.s.e.7.  7.F.OX7XsXfXjXjXfXdXdXeX3X-X{.-.W . . ",
"          & > ' r.m.L.Y.U.K.K.U.L.L.L.U.U.U.L.L.U.L.L.L.L.K.K.K.K.K.K.K.K.K.K.S.S.D.D.g.d.g.G.@X7XyXgXgXgXdXdXgXgXdXrX-XC./ . . ",
"          A f @.t.S.L.L.K.K.K.S.S.S.D.D.m.S.M.D.m.Z.D.S.S.K.K.K.K.K.K.K.K.K.K.L.K.L.L.K.M.I.W.#X5XtXyXyXeXeXeXyXdXaXrX=X`.@.h * ",
"          <.$.9.c.S.L.U.Y.U.S.M.v.s.t.e.t.t.t.t.t.e.s.v.S.K.L.P.U.K.U.K.U.K.L.U.U.Y.Y.P.I.I.W.%X;X7X6X7X,X=X=X>X4X2X:XOXH.      ",
"        4.e.s.b.m.S.K.Y.Y.Y.K.m.t.1.X.X.o.O.+.O.E O.1.w.m.K.Y.Y.Y.Y.U.Y.L.U.P.P.Y.Y.Y.P.P.P.R.oX#X$X@XOX{./.^.^.^._./.F.B.      ",
"j x L 3.y.m.S.K.S.K.K.U.Y.Y.S.s.1.H t y p C Z p y t H 1.s.S.Y.Y.L.L.L.L.L.U.L.L.L.L.L.L.L.L.P.R.W.!.E.F.x.[ W W ~ ~ |           ",
"X + 7 @.u.S.Y.R.Y.S.K.K.K.S.b.q.} t . . X + + X . . t R q.b.S.S.S.S.Z.Z.D.D.D.D.D.D.S.D.D.D.D.D.M.M.d.4.  k % . X . N           ",
"+ + 9  .s.L.R.R.Y.U.S.m.b.p.q.+.J @ . . . X X . . . # H 1.y.s.s.t.e.e.t.e.p.t.s.t.p.t.t.p.p.t.e.w.7.            :.:.            ",
"X + 9  .u.K.R.R.Y.U.S.v.q.#.H D t # + + + @ @ + + + 4 D Y O.$.o.X.} } X.O.O.+.#.+.+.+.+.$.+.+.} { R >.                          ",
"X + 7 @.t.S.Y.R.Y.L.m.t.#.F @ + @ 2 2 2 2 2 2 2 # # 4 t a C C s p t t u s C C C C D C C C D C i 9 7 L                           ",
"j x L <.t.m.S.S.Y.L.S.p.#.F @ + ; 4 2 2 2 2 : 2 4 2 # @ + X + @ y t t y @ + + X + + + + + + + + + + l                           ",
"        4.q.u.n.S.L.S.m.e.1.T J Z t @ @ @ ; ; ; ; ; @ @ X X + s H X.} Y Z @ . . X + X X X X X X X X *                           ",
"          R ..0.b.G.P.K.S.v.t.1.Y a @ + @ ; ; ; ; ; @ @ X X t T 8.t.p.8.T t X X + @ @ @ @ @ @ + + @ = b                         ",
"          a q ..u.S.Y.R.Y.K.m.e.O.C + X @ ; ; ; ; ; ; @ X + C #.s.S.D.s.<.C + X @ ; ; @ @ ; 3 2 ; : r 2 ; u                     ",
"          N V { q.b.S.K.K.K.m.t.o.s + X z v m m m A b z X + C +.s.S.S.s.$.C + O z b v v u r : : 3 3 ; ; ; ; V                   ",
"              >.4.e.s.c.v.v.s.5.{ i = c                 n = i { 8.s.s.8.{ i = n         U z ; ; ; r ; ; ; ; r                   ",
"                  <.@.@.$.1.+.Y d < z                     z < f } #.#.R f < z             V ; ; @ 4 ; ; ; ; V                   ",
"                  L w 0 d D s 5 > ; v                     v ; > 5 C C 8 > ; v             m ; ; ; 2 2 ; ; ; b                   ",
"                  x + + + + @ @ @ ; A                     A ; ; @ + + @ ; @ m             m ; ; ; 2 2 ; ; ; A                   ",
"                  j X X X X X + @ ; m                     m ; @ + X + + @ ; A             m ; ; ; : 2 ; ; ; m                   "
};
